<?xml version="1.0" encoding="utf-8" standalone="no"?>
<!DOCTYPE svg PUBLIC "-//W3C//DTD SVG 1.1//EN"
  "http://www.w3.org/Graphics/SVG/1.1/DTD/svg11.dtd">
<svg xmlns:xlink="http://www.w3.org/1999/xlink" width="460.8pt" height="345.6pt" viewBox="0 0 460.8 345.6" xmlns="http://www.w3.org/2000/svg" version="1.1">
 <metadata>
  <rdf:RDF xmlns:dc="http://purl.org/dc/elements/1.1/" xmlns:cc="http://creativecommons.org/ns#" xmlns:rdf="http://www.w3.org/1999/02/22-rdf-syntax-ns#">
   <cc:Work>
    <dc:type rdf:resource="http://purl.org/dc/dcmitype/StillImage"/>
    <dc:date>2024-03-01T14:37:05.728877</dc:date>
    <dc:format>image/svg+xml</dc:format>
    <dc:creator>
     <cc:Agent>
      <dc:title>Matplotlib v3.8.0, https://matplotlib.org/</dc:title>
     </cc:Agent>
    </dc:creator>
   </cc:Work>
  </rdf:RDF>
 </metadata>
 <defs>
  <style type="text/css">*{stroke-linejoin: round; stroke-linecap: butt}</style>
 </defs>
 <g id="figure_1">
  <g id="patch_1">
   <path d="M 0 345.6 
L 460.8 345.6 
L 460.8 0 
L 0 0 
z
" style="fill: #ffffff"/>
  </g>
  <g id="axes_1">
   <g id="patch_2">
    <path d="M 57.6 307.584 
L 414.72 307.584 
L 414.72 41.472 
L 57.6 41.472 
z
" style="fill: #ffffff"/>
   </g>
   <g id="PolyCollection_1">
    <defs>
     <path id="m29d2606ea5" d="M 156.170376 -207.958708 
L 152.065905 -207.958708 
L 151.314142 -208.279101 
L 150.349869 -208.599494 
L 149.136306 -208.919887 
L 147.637836 -209.240279 
L 145.822591 -209.560672 
L 143.665323 -209.881065 
L 141.150328 -210.201458 
L 138.274105 -210.521851 
L 135.047407 -210.842243 
L 131.496351 -211.162636 
L 127.662326 -211.483029 
L 123.60054 -211.803422 
L 119.377232 -212.123815 
L 115.065754 -212.444207 
L 110.741902 -212.7646 
L 106.479038 -213.084993 
L 102.343604 -213.405386 
L 98.391636 -213.725778 
L 94.666752 -214.046171 
L 91.19989 -214.366564 
L 88.010823 -214.686957 
L 85.111143 -215.00735 
L 82.508213 -215.327742 
L 80.209355 -215.648135 
L 78.225513 -215.968528 
L 76.573716 -216.288921 
L 75.277844 -216.609313 
L 74.36753 -216.929706 
L 73.875347 -217.250099 
L 73.832727 -217.570492 
L 74.26531 -217.890885 
L 75.188478 -218.211277 
L 76.603805 -218.53167 
L 78.496961 -218.852063 
L 80.837336 -219.172456 
L 83.579367 -219.492849 
L 86.665276 -219.813241 
L 90.028725 -220.133634 
L 93.598846 -220.454027 
L 97.30411 -220.77442 
L 101.075643 -221.094812 
L 104.84976 -221.415205 
L 108.569678 -221.735598 
L 112.186515 -222.055991 
L 115.659748 -222.376384 
L 118.957356 -222.696776 
L 122.05577 -223.017169 
L 124.939736 -223.337562 
L 127.602075 -223.657955 
L 130.043259 -223.978347 
L 132.270728 -224.29874 
L 134.297875 -224.619133 
L 136.142671 -224.939526 
L 137.825991 -225.259919 
L 139.36978 -225.580311 
L 140.795208 -225.900704 
L 142.121037 -226.221097 
L 143.362345 -226.54149 
L 144.529741 -226.861882 
L 145.629124 -227.182275 
L 146.661952 -227.502668 
L 147.625931 -227.823061 
L 148.515989 -228.143454 
L 149.325387 -228.463846 
L 150.0468 -228.784239 
L 150.673277 -229.104632 
L 151.198997 -229.425025 
L 151.619796 -229.745418 
L 151.933508 -230.06581 
L 152.140149 -230.386203 
L 152.24202 -230.706596 
L 152.243783 -231.026989 
L 152.152538 -231.347381 
L 151.9779 -231.667774 
L 151.732063 -231.988167 
L 151.429759 -232.30856 
L 151.08808 -232.628953 
L 150.726073 -232.949345 
L 150.364085 -233.269738 
L 150.022856 -233.590131 
L 149.722398 -233.910524 
L 149.480771 -234.230916 
L 149.312864 -234.551309 
L 149.229338 -234.871702 
L 149.235858 -235.192095 
L 149.332729 -235.512488 
L 149.514983 -235.83288 
L 149.772926 -236.153273 
L 150.093079 -236.473666 
L 150.459393 -236.794059 
L 150.85462 -237.114452 
L 151.261659 -237.434844 
L 151.664752 -237.755237 
L 152.05043 -238.07563 
L 152.408119 -238.396023 
L 152.730423 -238.716415 
L 153.013075 -239.036808 
L 153.25464 -239.357201 
L 153.456038 -239.677594 
L 154.780242 -239.677594 
L 154.780242 -239.677594 
L 154.981641 -239.357201 
L 155.223206 -239.036808 
L 155.505857 -238.716415 
L 155.828161 -238.396023 
L 156.185851 -238.07563 
L 156.571528 -237.755237 
L 156.974621 -237.434844 
L 157.38166 -237.114452 
L 157.776887 -236.794059 
L 158.143202 -236.473666 
L 158.463354 -236.153273 
L 158.721297 -235.83288 
L 158.903551 -235.512488 
L 159.000422 -235.192095 
L 159.006942 -234.871702 
L 158.923416 -234.551309 
L 158.755509 -234.230916 
L 158.513882 -233.910524 
L 158.213424 -233.590131 
L 157.872195 -233.269738 
L 157.510207 -232.949345 
L 157.1482 -232.628953 
L 156.806521 -232.30856 
L 156.504217 -231.988167 
L 156.25838 -231.667774 
L 156.083743 -231.347381 
L 155.992497 -231.026989 
L 155.99426 -230.706596 
L 156.096131 -230.386203 
L 156.302772 -230.06581 
L 156.616484 -229.745418 
L 157.037283 -229.425025 
L 157.563003 -229.104632 
L 158.189481 -228.784239 
L 158.910894 -228.463846 
L 159.720291 -228.143454 
L 160.610349 -227.823061 
L 161.574328 -227.502668 
L 162.607156 -227.182275 
L 163.706539 -226.861882 
L 164.873935 -226.54149 
L 166.115243 -226.221097 
L 167.441072 -225.900704 
L 168.8665 -225.580311 
L 170.410289 -225.259919 
L 172.093609 -224.939526 
L 173.938405 -224.619133 
L 175.965552 -224.29874 
L 178.193022 -223.978347 
L 180.634205 -223.657955 
L 183.296544 -223.337562 
L 186.18051 -223.017169 
L 189.278924 -222.696776 
L 192.576532 -222.376384 
L 196.049766 -222.055991 
L 199.666602 -221.735598 
L 203.38652 -221.415205 
L 207.160637 -221.094812 
L 210.93217 -220.77442 
L 214.637434 -220.454027 
L 218.207555 -220.133634 
L 221.571004 -219.813241 
L 224.656913 -219.492849 
L 227.398944 -219.172456 
L 229.739319 -218.852063 
L 231.632475 -218.53167 
L 233.047802 -218.211277 
L 233.97097 -217.890885 
L 234.403553 -217.570492 
L 234.360933 -217.250099 
L 233.86875 -216.929706 
L 232.958437 -216.609313 
L 231.662564 -216.288921 
L 230.010767 -215.968528 
L 228.026925 -215.648135 
L 225.728067 -215.327742 
L 223.125137 -215.00735 
L 220.225457 -214.686957 
L 217.03639 -214.366564 
L 213.569528 -214.046171 
L 209.844644 -213.725778 
L 205.892676 -213.405386 
L 201.757242 -213.084993 
L 197.494378 -212.7646 
L 193.170526 -212.444207 
L 188.859048 -212.123815 
L 184.63574 -211.803422 
L 180.573954 -211.483029 
L 176.739929 -211.162636 
L 173.188874 -210.842243 
L 169.962175 -210.521851 
L 167.085952 -210.201458 
L 164.570957 -209.881065 
L 162.413689 -209.560672 
L 160.598444 -209.240279 
L 159.099974 -208.919887 
L 157.886411 -208.599494 
L 156.922138 -208.279101 
L 156.170376 -207.958708 
z
" style="stroke: #3f3f3f; stroke-width: 1.25"/>
    </defs>
    <g clip-path="url(#pfc87948ead)">
     <use xlink:href="#m29d2606ea5" x="0" y="345.6" style="fill: #3274a1; stroke: #3f3f3f; stroke-width: 1.25"/>
    </g>
   </g>
   <g id="PolyCollection_2">
    <defs>
     <path id="mb1ca04c557" d="M 356.663595 -208.200207 
L 352.999749 -208.200207 
L 352.266442 -209.122917 
L 351.307711 -210.045627 
L 350.082301 -210.968338 
L 348.55172 -211.891048 
L 346.684485 -212.813758 
L 344.460988 -213.736468 
L 341.878558 -214.659178 
L 338.956132 -215.581888 
L 335.737846 -216.504598 
L 332.294844 -217.427308 
L 328.724699 -218.350019 
L 325.148069 -219.272729 
L 321.702512 -220.195439 
L 318.533788 -221.118149 
L 315.785357 -222.040859 
L 313.587118 -222.963569 
L 312.044627 -223.886279 
L 311.230068 -224.808989 
L 311.176071 -225.7317 
L 311.873156 -226.65441 
L 313.271087 -227.57712 
L 315.283951 -228.49983 
L 317.798263 -229.42254 
L 320.683078 -230.34525 
L 323.800869 -231.26796 
L 327.017948 -232.19067 
L 330.213365 -233.113381 
L 333.285527 -234.036091 
L 336.156146 -234.958801 
L 338.771507 -235.881511 
L 341.101373 -236.804221 
L 343.136049 -237.726931 
L 344.882301 -238.649641 
L 346.358767 -239.572352 
L 347.591476 -240.495062 
L 348.609927 -241.417772 
L 349.444007 -242.340482 
L 350.121876 -243.263192 
L 350.668783 -244.185902 
L 351.106679 -245.108612 
L 351.454409 -246.031322 
L 351.728247 -246.954033 
L 351.942555 -247.876743 
L 352.110369 -248.799453 
L 352.243795 -249.722163 
L 352.354147 -250.644873 
L 352.451841 -251.567583 
L 352.546104 -252.490293 
L 352.644589 -253.413003 
L 352.753003 -254.335714 
L 352.87485 -255.258424 
L 353.011348 -256.181134 
L 353.161553 -257.103844 
L 353.322694 -258.026554 
L 353.490651 -258.949264 
L 353.66053 -259.871974 
L 353.827245 -260.794685 
L 353.986033 -261.717395 
L 354.132855 -262.640105 
L 354.264645 -263.562815 
L 354.379393 -264.485525 
L 354.476092 -265.408235 
L 354.554564 -266.330945 
L 354.615219 -267.253655 
L 354.658778 -268.176366 
L 354.686019 -269.099076 
L 354.697553 -270.021786 
L 354.693681 -270.944496 
L 354.67433 -271.867206 
L 354.639081 -272.789916 
L 354.587293 -273.712626 
L 354.518303 -274.635336 
L 354.431693 -275.558047 
L 354.327582 -276.480757 
L 354.206933 -277.403467 
L 354.071798 -278.326177 
L 353.92549 -279.248887 
L 353.772621 -280.171597 
L 353.618986 -281.094307 
L 353.471282 -282.017017 
L 353.336678 -282.939728 
L 353.222265 -283.862438 
L 353.134454 -284.785148 
L 353.07839 -285.707858 
L 353.057452 -286.630568 
L 353.072922 -287.553278 
L 353.123855 -288.475988 
L 353.207174 -289.398699 
L 353.31798 -290.321409 
L 353.450028 -291.244119 
L 353.596307 -292.166829 
L 353.749653 -293.089539 
L 353.903315 -294.012249 
L 354.051419 -294.934959 
L 354.189286 -295.857669 
L 354.313592 -296.78038 
L 354.422375 -297.70309 
L 354.514919 -298.6258 
L 354.591544 -299.54851 
L 355.0718 -299.54851 
L 355.0718 -299.54851 
L 355.148425 -298.6258 
L 355.240969 -297.70309 
L 355.349753 -296.78038 
L 355.474058 -295.857669 
L 355.611925 -294.934959 
L 355.760029 -294.012249 
L 355.913691 -293.089539 
L 356.067037 -292.166829 
L 356.213316 -291.244119 
L 356.345364 -290.321409 
L 356.45617 -289.398699 
L 356.539489 -288.475988 
L 356.590422 -287.553278 
L 356.605892 -286.630568 
L 356.584954 -285.707858 
L 356.52889 -284.785148 
L 356.441079 -283.862438 
L 356.326666 -282.939728 
L 356.192062 -282.017017 
L 356.044358 -281.094307 
L 355.890723 -280.171597 
L 355.737854 -279.248887 
L 355.591546 -278.326177 
L 355.456412 -277.403467 
L 355.335762 -276.480757 
L 355.231651 -275.558047 
L 355.145041 -274.635336 
L 355.076051 -273.712626 
L 355.024263 -272.789916 
L 354.989014 -271.867206 
L 354.969663 -270.944496 
L 354.965791 -270.021786 
L 354.977325 -269.099076 
L 355.004566 -268.176366 
L 355.048125 -267.253655 
L 355.10878 -266.330945 
L 355.187252 -265.408235 
L 355.283951 -264.485525 
L 355.398699 -263.562815 
L 355.530489 -262.640105 
L 355.677311 -261.717395 
L 355.836099 -260.794685 
L 356.002814 -259.871974 
L 356.172693 -258.949264 
L 356.34065 -258.026554 
L 356.501791 -257.103844 
L 356.651996 -256.181134 
L 356.788494 -255.258424 
L 356.910341 -254.335714 
L 357.018755 -253.413003 
L 357.11724 -252.490293 
L 357.211503 -251.567583 
L 357.309197 -250.644873 
L 357.419549 -249.722163 
L 357.552975 -248.799453 
L 357.720789 -247.876743 
L 357.935097 -246.954033 
L 358.208935 -246.031322 
L 358.556665 -245.108612 
L 358.994561 -244.185902 
L 359.541468 -243.263192 
L 360.219337 -242.340482 
L 361.053417 -241.417772 
L 362.071868 -240.495062 
L 363.304577 -239.572352 
L 364.781043 -238.649641 
L 366.527295 -237.726931 
L 368.561971 -236.804221 
L 370.891837 -235.881511 
L 373.507198 -234.958801 
L 376.377817 -234.036091 
L 379.449979 -233.113381 
L 382.645396 -232.19067 
L 385.862475 -231.26796 
L 388.980266 -230.34525 
L 391.865081 -229.42254 
L 394.379393 -228.49983 
L 396.392257 -227.57712 
L 397.790188 -226.65441 
L 398.487273 -225.7317 
L 398.433276 -224.808989 
L 397.618717 -223.886279 
L 396.076226 -222.963569 
L 393.877987 -222.040859 
L 391.129556 -221.118149 
L 387.960832 -220.195439 
L 384.515275 -219.272729 
L 380.938645 -218.350019 
L 377.3685 -217.427308 
L 373.925498 -216.504598 
L 370.707212 -215.581888 
L 367.784786 -214.659178 
L 365.202356 -213.736468 
L 362.978859 -212.813758 
L 361.111624 -211.891048 
L 359.581043 -210.968338 
L 358.355633 -210.045627 
L 357.396902 -209.122917 
L 356.663595 -208.200207 
z
" style="stroke: #3f3f3f; stroke-width: 1.25"/>
    </defs>
    <g clip-path="url(#pfc87948ead)">
     <use xlink:href="#mb1ca04c557" x="0" y="345.6" style="fill: #3274a1; stroke: #3f3f3f; stroke-width: 1.25"/>
    </g>
   </g>
   <g id="matplotlib.axis_1">
    <g id="xtick_1">
     <g id="line2d_1">
      <defs>
       <path id="m79dad41ae6" d="M 0 0 
L 0 3.5 
" style="stroke: #000000; stroke-width: 0.8"/>
      </defs>
      <g>
       <use xlink:href="#m79dad41ae6" x="154.11814" y="307.584" style="stroke: #000000; stroke-width: 0.8"/>
      </g>
     </g>
     <g id="text_1">
      <!-- H264 -->
      <g transform="translate(140.814234 322.182437) scale(0.1 -0.1)">
       <defs>
        <path id="DejaVuSans-48" d="M 628 4666 
L 1259 4666 
L 1259 2753 
L 3553 2753 
L 3553 4666 
L 4184 4666 
L 4184 0 
L 3553 0 
L 3553 2222 
L 1259 2222 
L 1259 0 
L 628 0 
L 628 4666 
z
" transform="scale(0.015625)"/>
        <path id="DejaVuSans-32" d="M 1228 531 
L 3431 531 
L 3431 0 
L 469 0 
L 469 531 
Q 828 903 1448 1529 
Q 2069 2156 2228 2338 
Q 2531 2678 2651 2914 
Q 2772 3150 2772 3378 
Q 2772 3750 2511 3984 
Q 2250 4219 1831 4219 
Q 1534 4219 1204 4116 
Q 875 4013 500 3803 
L 500 4441 
Q 881 4594 1212 4672 
Q 1544 4750 1819 4750 
Q 2544 4750 2975 4387 
Q 3406 4025 3406 3419 
Q 3406 3131 3298 2873 
Q 3191 2616 2906 2266 
Q 2828 2175 2409 1742 
Q 1991 1309 1228 531 
z
" transform="scale(0.015625)"/>
        <path id="DejaVuSans-36" d="M 2113 2584 
Q 1688 2584 1439 2293 
Q 1191 2003 1191 1497 
Q 1191 994 1439 701 
Q 1688 409 2113 409 
Q 2538 409 2786 701 
Q 3034 994 3034 1497 
Q 3034 2003 2786 2293 
Q 2538 2584 2113 2584 
z
M 3366 4563 
L 3366 3988 
Q 3128 4100 2886 4159 
Q 2644 4219 2406 4219 
Q 1781 4219 1451 3797 
Q 1122 3375 1075 2522 
Q 1259 2794 1537 2939 
Q 1816 3084 2150 3084 
Q 2853 3084 3261 2657 
Q 3669 2231 3669 1497 
Q 3669 778 3244 343 
Q 2819 -91 2113 -91 
Q 1303 -91 875 529 
Q 447 1150 447 2328 
Q 447 3434 972 4092 
Q 1497 4750 2381 4750 
Q 2619 4750 2861 4703 
Q 3103 4656 3366 4563 
z
" transform="scale(0.015625)"/>
        <path id="DejaVuSans-34" d="M 2419 4116 
L 825 1625 
L 2419 1625 
L 2419 4116 
z
M 2253 4666 
L 3047 4666 
L 3047 1625 
L 3713 1625 
L 3713 1100 
L 3047 1100 
L 3047 0 
L 2419 0 
L 2419 1100 
L 313 1100 
L 313 1709 
L 2253 4666 
z
" transform="scale(0.015625)"/>
       </defs>
       <use xlink:href="#DejaVuSans-48"/>
       <use xlink:href="#DejaVuSans-32" x="75.195312"/>
       <use xlink:href="#DejaVuSans-36" x="138.818359"/>
       <use xlink:href="#DejaVuSans-34" x="202.441406"/>
      </g>
     </g>
    </g>
    <g id="xtick_2">
     <g id="line2d_2">
      <g>
       <use xlink:href="#m79dad41ae6" x="354.831672" y="307.584" style="stroke: #000000; stroke-width: 0.8"/>
      </g>
     </g>
     <g id="text_2">
      <!-- H265 -->
      <g transform="translate(341.527766 322.182437) scale(0.1 -0.1)">
       <defs>
        <path id="DejaVuSans-35" d="M 691 4666 
L 3169 4666 
L 3169 4134 
L 1269 4134 
L 1269 2991 
Q 1406 3038 1543 3061 
Q 1681 3084 1819 3084 
Q 2600 3084 3056 2656 
Q 3513 2228 3513 1497 
Q 3513 744 3044 326 
Q 2575 -91 1722 -91 
Q 1428 -91 1123 -41 
Q 819 9 494 109 
L 494 744 
Q 775 591 1075 516 
Q 1375 441 1709 441 
Q 2250 441 2565 725 
Q 2881 1009 2881 1497 
Q 2881 1984 2565 2268 
Q 2250 2553 1709 2553 
Q 1456 2553 1204 2497 
Q 953 2441 691 2322 
L 691 4666 
z
" transform="scale(0.015625)"/>
       </defs>
       <use xlink:href="#DejaVuSans-48"/>
       <use xlink:href="#DejaVuSans-32" x="75.195312"/>
       <use xlink:href="#DejaVuSans-36" x="138.818359"/>
       <use xlink:href="#DejaVuSans-35" x="202.441406"/>
      </g>
     </g>
    </g>
    <g id="text_3">
     <!-- Codec -->
     <g transform="translate(220.609219 335.860562) scale(0.1 -0.1)">
      <defs>
       <path id="DejaVuSans-43" d="M 4122 4306 
L 4122 3641 
Q 3803 3938 3442 4084 
Q 3081 4231 2675 4231 
Q 1875 4231 1450 3742 
Q 1025 3253 1025 2328 
Q 1025 1406 1450 917 
Q 1875 428 2675 428 
Q 3081 428 3442 575 
Q 3803 722 4122 1019 
L 4122 359 
Q 3791 134 3420 21 
Q 3050 -91 2638 -91 
Q 1578 -91 968 557 
Q 359 1206 359 2328 
Q 359 3453 968 4101 
Q 1578 4750 2638 4750 
Q 3056 4750 3426 4639 
Q 3797 4528 4122 4306 
z
" transform="scale(0.015625)"/>
       <path id="DejaVuSans-6f" d="M 1959 3097 
Q 1497 3097 1228 2736 
Q 959 2375 959 1747 
Q 959 1119 1226 758 
Q 1494 397 1959 397 
Q 2419 397 2687 759 
Q 2956 1122 2956 1747 
Q 2956 2369 2687 2733 
Q 2419 3097 1959 3097 
z
M 1959 3584 
Q 2709 3584 3137 3096 
Q 3566 2609 3566 1747 
Q 3566 888 3137 398 
Q 2709 -91 1959 -91 
Q 1206 -91 779 398 
Q 353 888 353 1747 
Q 353 2609 779 3096 
Q 1206 3584 1959 3584 
z
" transform="scale(0.015625)"/>
       <path id="DejaVuSans-64" d="M 2906 2969 
L 2906 4863 
L 3481 4863 
L 3481 0 
L 2906 0 
L 2906 525 
Q 2725 213 2448 61 
Q 2172 -91 1784 -91 
Q 1150 -91 751 415 
Q 353 922 353 1747 
Q 353 2572 751 3078 
Q 1150 3584 1784 3584 
Q 2172 3584 2448 3432 
Q 2725 3281 2906 2969 
z
M 947 1747 
Q 947 1113 1208 752 
Q 1469 391 1925 391 
Q 2381 391 2643 752 
Q 2906 1113 2906 1747 
Q 2906 2381 2643 2742 
Q 2381 3103 1925 3103 
Q 1469 3103 1208 2742 
Q 947 2381 947 1747 
z
" transform="scale(0.015625)"/>
       <path id="DejaVuSans-65" d="M 3597 1894 
L 3597 1613 
L 953 1613 
Q 991 1019 1311 708 
Q 1631 397 2203 397 
Q 2534 397 2845 478 
Q 3156 559 3463 722 
L 3463 178 
Q 3153 47 2828 -22 
Q 2503 -91 2169 -91 
Q 1331 -91 842 396 
Q 353 884 353 1716 
Q 353 2575 817 3079 
Q 1281 3584 2069 3584 
Q 2775 3584 3186 3129 
Q 3597 2675 3597 1894 
z
M 3022 2063 
Q 3016 2534 2758 2815 
Q 2500 3097 2075 3097 
Q 1594 3097 1305 2825 
Q 1016 2553 972 2059 
L 3022 2063 
z
" transform="scale(0.015625)"/>
       <path id="DejaVuSans-63" d="M 3122 3366 
L 3122 2828 
Q 2878 2963 2633 3030 
Q 2388 3097 2138 3097 
Q 1578 3097 1268 2742 
Q 959 2388 959 1747 
Q 959 1106 1268 751 
Q 1578 397 2138 397 
Q 2388 397 2633 464 
Q 2878 531 3122 666 
L 3122 134 
Q 2881 22 2623 -34 
Q 2366 -91 2075 -91 
Q 1284 -91 818 406 
Q 353 903 353 1747 
Q 353 2603 823 3093 
Q 1294 3584 2113 3584 
Q 2378 3584 2631 3529 
Q 2884 3475 3122 3366 
z
" transform="scale(0.015625)"/>
      </defs>
      <use xlink:href="#DejaVuSans-43"/>
      <use xlink:href="#DejaVuSans-6f" x="69.824219"/>
      <use xlink:href="#DejaVuSans-64" x="131.005859"/>
      <use xlink:href="#DejaVuSans-65" x="194.482422"/>
      <use xlink:href="#DejaVuSans-63" x="256.005859"/>
     </g>
    </g>
   </g>
   <g id="matplotlib.axis_2">
    <g id="ytick_1">
     <g id="line2d_3">
      <defs>
       <path id="m7fb662ed2d" d="M 0 0 
L -3.5 0 
" style="stroke: #000000; stroke-width: 0.8"/>
      </defs>
      <g>
       <use xlink:href="#m7fb662ed2d" x="57.6" y="307.584" style="stroke: #000000; stroke-width: 0.8"/>
      </g>
     </g>
     <g id="text_4">
      <!-- 0 -->
      <g transform="translate(44.2375 311.383219) scale(0.1 -0.1)">
       <defs>
        <path id="DejaVuSans-30" d="M 2034 4250 
Q 1547 4250 1301 3770 
Q 1056 3291 1056 2328 
Q 1056 1369 1301 889 
Q 1547 409 2034 409 
Q 2525 409 2770 889 
Q 3016 1369 3016 2328 
Q 3016 3291 2770 3770 
Q 2525 4250 2034 4250 
z
M 2034 4750 
Q 2819 4750 3233 4129 
Q 3647 3509 3647 2328 
Q 3647 1150 3233 529 
Q 2819 -91 2034 -91 
Q 1250 -91 836 529 
Q 422 1150 422 2328 
Q 422 3509 836 4129 
Q 1250 4750 2034 4750 
z
" transform="scale(0.015625)"/>
       </defs>
       <use xlink:href="#DejaVuSans-30"/>
      </g>
     </g>
    </g>
    <g id="ytick_2">
     <g id="line2d_4">
      <g>
       <use xlink:href="#m7fb662ed2d" x="57.6" y="263.15725" style="stroke: #000000; stroke-width: 0.8"/>
      </g>
     </g>
     <g id="text_5">
      <!-- 1 -->
      <g transform="translate(44.2375 266.956469) scale(0.1 -0.1)">
       <defs>
        <path id="DejaVuSans-31" d="M 794 531 
L 1825 531 
L 1825 4091 
L 703 3866 
L 703 4441 
L 1819 4666 
L 2450 4666 
L 2450 531 
L 3481 531 
L 3481 0 
L 794 0 
L 794 531 
z
" transform="scale(0.015625)"/>
       </defs>
       <use xlink:href="#DejaVuSans-31"/>
      </g>
     </g>
    </g>
    <g id="ytick_3">
     <g id="line2d_5">
      <g>
       <use xlink:href="#m7fb662ed2d" x="57.6" y="218.730501" style="stroke: #000000; stroke-width: 0.8"/>
      </g>
     </g>
     <g id="text_6">
      <!-- 2 -->
      <g transform="translate(44.2375 222.529719) scale(0.1 -0.1)">
       <use xlink:href="#DejaVuSans-32"/>
      </g>
     </g>
    </g>
    <g id="ytick_4">
     <g id="line2d_6">
      <g>
       <use xlink:href="#m7fb662ed2d" x="57.6" y="174.303751" style="stroke: #000000; stroke-width: 0.8"/>
      </g>
     </g>
     <g id="text_7">
      <!-- 3 -->
      <g transform="translate(44.2375 178.10297) scale(0.1 -0.1)">
       <defs>
        <path id="DejaVuSans-33" d="M 2597 2516 
Q 3050 2419 3304 2112 
Q 3559 1806 3559 1356 
Q 3559 666 3084 287 
Q 2609 -91 1734 -91 
Q 1441 -91 1130 -33 
Q 819 25 488 141 
L 488 750 
Q 750 597 1062 519 
Q 1375 441 1716 441 
Q 2309 441 2620 675 
Q 2931 909 2931 1356 
Q 2931 1769 2642 2001 
Q 2353 2234 1838 2234 
L 1294 2234 
L 1294 2753 
L 1863 2753 
Q 2328 2753 2575 2939 
Q 2822 3125 2822 3475 
Q 2822 3834 2567 4026 
Q 2313 4219 1838 4219 
Q 1578 4219 1281 4162 
Q 984 4106 628 3988 
L 628 4550 
Q 988 4650 1302 4700 
Q 1616 4750 1894 4750 
Q 2613 4750 3031 4423 
Q 3450 4097 3450 3541 
Q 3450 3153 3228 2886 
Q 3006 2619 2597 2516 
z
" transform="scale(0.015625)"/>
       </defs>
       <use xlink:href="#DejaVuSans-33"/>
      </g>
     </g>
    </g>
    <g id="ytick_5">
     <g id="line2d_7">
      <g>
       <use xlink:href="#m7fb662ed2d" x="57.6" y="129.877001" style="stroke: #000000; stroke-width: 0.8"/>
      </g>
     </g>
     <g id="text_8">
      <!-- 4 -->
      <g transform="translate(44.2375 133.67622) scale(0.1 -0.1)">
       <use xlink:href="#DejaVuSans-34"/>
      </g>
     </g>
    </g>
    <g id="ytick_6">
     <g id="line2d_8">
      <g>
       <use xlink:href="#m7fb662ed2d" x="57.6" y="85.450251" style="stroke: #000000; stroke-width: 0.8"/>
      </g>
     </g>
     <g id="text_9">
      <!-- 5 -->
      <g transform="translate(44.2375 89.24947) scale(0.1 -0.1)">
       <use xlink:href="#DejaVuSans-35"/>
      </g>
     </g>
    </g>
    <g id="text_10">
     <!-- Power (W) -->
     <g transform="translate(38.157812 200.076437) rotate(-90) scale(0.1 -0.1)">
      <defs>
       <path id="DejaVuSans-50" d="M 1259 4147 
L 1259 2394 
L 2053 2394 
Q 2494 2394 2734 2622 
Q 2975 2850 2975 3272 
Q 2975 3691 2734 3919 
Q 2494 4147 2053 4147 
L 1259 4147 
z
M 628 4666 
L 2053 4666 
Q 2838 4666 3239 4311 
Q 3641 3956 3641 3272 
Q 3641 2581 3239 2228 
Q 2838 1875 2053 1875 
L 1259 1875 
L 1259 0 
L 628 0 
L 628 4666 
z
" transform="scale(0.015625)"/>
       <path id="DejaVuSans-77" d="M 269 3500 
L 844 3500 
L 1563 769 
L 2278 3500 
L 2956 3500 
L 3675 769 
L 4391 3500 
L 4966 3500 
L 4050 0 
L 3372 0 
L 2619 2869 
L 1863 0 
L 1184 0 
L 269 3500 
z
" transform="scale(0.015625)"/>
       <path id="DejaVuSans-72" d="M 2631 2963 
Q 2534 3019 2420 3045 
Q 2306 3072 2169 3072 
Q 1681 3072 1420 2755 
Q 1159 2438 1159 1844 
L 1159 0 
L 581 0 
L 581 3500 
L 1159 3500 
L 1159 2956 
Q 1341 3275 1631 3429 
Q 1922 3584 2338 3584 
Q 2397 3584 2469 3576 
Q 2541 3569 2628 3553 
L 2631 2963 
z
" transform="scale(0.015625)"/>
       <path id="DejaVuSans-20" transform="scale(0.015625)"/>
       <path id="DejaVuSans-28" d="M 1984 4856 
Q 1566 4138 1362 3434 
Q 1159 2731 1159 2009 
Q 1159 1288 1364 580 
Q 1569 -128 1984 -844 
L 1484 -844 
Q 1016 -109 783 600 
Q 550 1309 550 2009 
Q 550 2706 781 3412 
Q 1013 4119 1484 4856 
L 1984 4856 
z
" transform="scale(0.015625)"/>
       <path id="DejaVuSans-57" d="M 213 4666 
L 850 4666 
L 1831 722 
L 2809 4666 
L 3519 4666 
L 4500 722 
L 5478 4666 
L 6119 4666 
L 4947 0 
L 4153 0 
L 3169 4050 
L 2175 0 
L 1381 0 
L 213 4666 
z
" transform="scale(0.015625)"/>
       <path id="DejaVuSans-29" d="M 513 4856 
L 1013 4856 
Q 1481 4119 1714 3412 
Q 1947 2706 1947 2009 
Q 1947 1309 1714 600 
Q 1481 -109 1013 -844 
L 513 -844 
Q 928 -128 1133 580 
Q 1338 1288 1338 2009 
Q 1338 2731 1133 3434 
Q 928 4138 513 4856 
z
" transform="scale(0.015625)"/>
      </defs>
      <use xlink:href="#DejaVuSans-50"/>
      <use xlink:href="#DejaVuSans-6f" x="56.677734"/>
      <use xlink:href="#DejaVuSans-77" x="117.859375"/>
      <use xlink:href="#DejaVuSans-65" x="199.646484"/>
      <use xlink:href="#DejaVuSans-72" x="261.169922"/>
      <use xlink:href="#DejaVuSans-20" x="302.283203"/>
      <use xlink:href="#DejaVuSans-28" x="334.070312"/>
      <use xlink:href="#DejaVuSans-57" x="373.083984"/>
      <use xlink:href="#DejaVuSans-29" x="471.960938"/>
     </g>
    </g>
   </g>
   <g id="line2d_9">
    <path d="M 154.11814 132.981548 
L 154.11814 119.275203 
" clip-path="url(#pfc87948ead)" style="fill: none; stroke: #3f3f3f; stroke-width: 1.875; stroke-linecap: square"/>
   </g>
   <g id="line2d_10">
    <path d="M 154.11814 130.543656 
L 154.11814 125.505396 
" clip-path="url(#pfc87948ead)" style="fill: none; stroke: #3f3f3f; stroke-width: 5.625; stroke-linecap: square"/>
   </g>
   <g id="line2d_11">
    <path d="M 154.11814 127.782418 
" clip-path="url(#pfc87948ead)" style="fill: none; stroke: #3f3f3f; stroke-width: 1.5; stroke-linecap: square"/>
    <defs>
     <path id="m2626c11820" d="M 2.34375 0 
L -2.34375 -0 
" style="stroke: #ffffff; stroke-width: 1.125"/>
    </defs>
    <g clip-path="url(#pfc87948ead)">
     <use xlink:href="#m2626c11820" x="154.11814" y="127.782418" style="fill: #ffffff; stroke: #ffffff; stroke-width: 1.125"/>
    </g>
   </g>
   <g id="line2d_12">
    <path d="M 354.831672 124.551566 
L 354.831672 115.347636 
" clip-path="url(#pfc87948ead)" style="fill: none; stroke: #3f3f3f; stroke-width: 1.875; stroke-linecap: square"/>
   </g>
   <g id="line2d_13">
    <path d="M 354.831672 121.897196 
L 354.831672 118.715945 
" clip-path="url(#pfc87948ead)" style="fill: none; stroke: #3f3f3f; stroke-width: 5.625; stroke-linecap: square"/>
   </g>
   <g id="line2d_14">
    <path d="M 354.831672 120.081204 
" clip-path="url(#pfc87948ead)" style="fill: none; stroke: #3f3f3f; stroke-width: 1.5; stroke-linecap: square"/>
    <g clip-path="url(#pfc87948ead)">
     <use xlink:href="#m2626c11820" x="354.831672" y="120.081204" style="fill: #ffffff; stroke: #ffffff; stroke-width: 1.125"/>
    </g>
   </g>
   <g id="patch_3">
    <path d="M 57.6 307.584 
L 57.6 41.472 
" style="fill: none; stroke: #000000; stroke-width: 0.8; stroke-linejoin: miter; stroke-linecap: square"/>
   </g>
   <g id="patch_4">
    <path d="M 414.72 307.584 
L 414.72 41.472 
" style="fill: none; stroke: #000000; stroke-width: 0.8; stroke-linejoin: miter; stroke-linecap: square"/>
   </g>
   <g id="patch_5">
    <path d="M 57.6 307.584 
L 414.72 307.584 
" style="fill: none; stroke: #000000; stroke-width: 0.8; stroke-linejoin: miter; stroke-linecap: square"/>
   </g>
   <g id="patch_6">
    <path d="M 57.6 41.472 
L 414.72 41.472 
" style="fill: none; stroke: #000000; stroke-width: 0.8; stroke-linejoin: miter; stroke-linecap: square"/>
   </g>
  </g>
 </g>
 <defs>
  <clipPath id="pfc87948ead">
   <rect x="57.6" y="41.472" width="357.12" height="266.112"/>
  </clipPath>
 </defs>
</svg>
