<?xml version="1.0" encoding="utf-8" standalone="no"?>
<!DOCTYPE svg PUBLIC "-//W3C//DTD SVG 1.1//EN"
  "http://www.w3.org/Graphics/SVG/1.1/DTD/svg11.dtd">
<svg xmlns:xlink="http://www.w3.org/1999/xlink" width="432pt" height="288pt" viewBox="0 0 432 288" xmlns="http://www.w3.org/2000/svg" version="1.1">
 <metadata>
  <rdf:RDF xmlns:dc="http://purl.org/dc/elements/1.1/" xmlns:cc="http://creativecommons.org/ns#" xmlns:rdf="http://www.w3.org/1999/02/22-rdf-syntax-ns#">
   <cc:Work>
    <dc:type rdf:resource="http://purl.org/dc/dcmitype/StillImage"/>
    <dc:date>2024-03-01T14:20:15.783027</dc:date>
    <dc:format>image/svg+xml</dc:format>
    <dc:creator>
     <cc:Agent>
      <dc:title>Matplotlib v3.5.2, https://matplotlib.org/</dc:title>
     </cc:Agent>
    </dc:creator>
   </cc:Work>
  </rdf:RDF>
 </metadata>
 <defs>
  <style type="text/css">*{stroke-linejoin: round; stroke-linecap: butt}</style>
 </defs>
 <g id="figure_1">
  <g id="patch_1">
   <path d="M 0 288 
L 432 288 
L 432 0 
L 0 0 
L 0 288 
z
" style="fill: none"/>
  </g>
  <g id="axes_1">
   <g id="patch_2">
    <path d="M 54 252 
L 388.8 252 
L 388.8 34.56 
L 54 34.56 
z
" style="fill: #ffffff"/>
   </g>
   <g id="PolyCollection_1">
    <defs>
     <path id="m6d9dd53959" d="M 146.409727 -45.883636 
L 142.561786 -45.883636 
L 141.857008 -46.575121 
L 140.953003 -47.266605 
L 139.815287 -47.958089 
L 138.410471 -48.649574 
L 136.708679 -49.341058 
L 134.686241 -50.032543 
L 132.328433 -50.724027 
L 129.631974 -51.415511 
L 126.606944 -52.106996 
L 123.277829 -52.79848 
L 119.683431 -53.489964 
L 115.875506 -54.181449 
L 111.916155 -54.872933 
L 107.874144 -55.564417 
L 103.820533 -56.255902 
L 99.824098 -56.947386 
L 95.947129 -57.63887 
L 92.242159 -58.330355 
L 88.75008 -59.021839 
L 85.499897 -59.713323 
L 82.510146 -60.404808 
L 79.791696 -61.096292 
L 77.35145 -61.787777 
L 75.19627 -62.479261 
L 73.336419 -63.170745 
L 71.787859 -63.86223 
L 70.572978 -64.553714 
L 69.719559 -65.245198 
L 69.258138 -65.936683 
L 69.218182 -66.628167 
L 69.623728 -67.319651 
L 70.489198 -68.011136 
L 71.816067 -68.70262 
L 73.590901 -69.394104 
L 75.785002 -70.085589 
L 78.355657 -70.777073 
L 81.248697 -71.468558 
L 84.40193 -72.160042 
L 87.748918 -72.851526 
L 91.222603 -73.543011 
L 94.758416 -74.234495 
L 98.29665 -74.925979 
L 101.784073 -75.617464 
L 105.174857 -76.308948 
L 108.431014 -77.000432 
L 111.522521 -77.691917 
L 114.427284 -78.383401 
L 117.131003 -79.074885 
L 119.626946 -79.76637 
L 121.915555 -80.457854 
L 124.003807 -81.149339 
L 125.904258 -81.840823 
L 127.633754 -82.532307 
L 129.211867 -83.223792 
L 130.659169 -83.915276 
L 131.995508 -84.60676 
L 133.238472 -85.298245 
L 134.402198 -85.989729 
L 135.496632 -86.681213 
L 136.527304 -87.372698 
L 137.49558 -88.064182 
L 138.39931 -88.755666 
L 139.23374 -89.447151 
L 139.99255 -90.138635 
L 140.668875 -90.83012 
L 141.256197 -91.521604 
L 141.749059 -92.213088 
L 142.143558 -92.904573 
L 142.437664 -93.596057 
L 142.631389 -94.287541 
L 142.726894 -94.979026 
L 142.728547 -95.67051 
L 142.643004 -96.361994 
L 142.479282 -97.053479 
L 142.248809 -97.744963 
L 141.965399 -98.436447 
L 141.645075 -99.127932 
L 141.305693 -99.819416 
L 140.96633 -100.510901 
L 140.646427 -101.202385 
L 140.364748 -101.893869 
L 140.138223 -102.585354 
L 139.98081 -103.276838 
L 139.902504 -103.968322 
L 139.908617 -104.659807 
L 139.999433 -105.351291 
L 140.170296 -106.042775 
L 140.412118 -106.73426 
L 140.712261 -107.425744 
L 141.055681 -108.117228 
L 141.426207 -108.808713 
L 141.807805 -109.500197 
L 142.185705 -110.191682 
L 142.547278 -110.883166 
L 142.882612 -111.57465 
L 143.184772 -112.266135 
L 143.449757 -112.957619 
L 143.676225 -113.649103 
L 143.865036 -114.340588 
L 145.106477 -114.340588 
L 145.106477 -114.340588 
L 145.295288 -113.649103 
L 145.521755 -112.957619 
L 145.786741 -112.266135 
L 146.088901 -111.57465 
L 146.424235 -110.883166 
L 146.785807 -110.191682 
L 147.163707 -109.500197 
L 147.545306 -108.808713 
L 147.915832 -108.117228 
L 148.259251 -107.425744 
L 148.559394 -106.73426 
L 148.801216 -106.042775 
L 148.972079 -105.351291 
L 149.062896 -104.659807 
L 149.069008 -103.968322 
L 148.990703 -103.276838 
L 148.83329 -102.585354 
L 148.606765 -101.893869 
L 148.325085 -101.202385 
L 148.005183 -100.510901 
L 147.665819 -99.819416 
L 147.326437 -99.127932 
L 147.006113 -98.436447 
L 146.722703 -97.744963 
L 146.492231 -97.053479 
L 146.328509 -96.361994 
L 146.242966 -95.67051 
L 146.244619 -94.979026 
L 146.340123 -94.287541 
L 146.533849 -93.596057 
L 146.827954 -92.904573 
L 147.222453 -92.213088 
L 147.715315 -91.521604 
L 148.302638 -90.83012 
L 148.978963 -90.138635 
L 149.737773 -89.447151 
L 150.572203 -88.755666 
L 151.475932 -88.064182 
L 152.444208 -87.372698 
L 153.474881 -86.681213 
L 154.569314 -85.989729 
L 155.73304 -85.298245 
L 156.976005 -84.60676 
L 158.312344 -83.915276 
L 159.759646 -83.223792 
L 161.337759 -82.532307 
L 163.067255 -81.840823 
L 164.967705 -81.149339 
L 167.055958 -80.457854 
L 169.344567 -79.76637 
L 171.84051 -79.074885 
L 174.544229 -78.383401 
L 177.448991 -77.691917 
L 180.540498 -77.000432 
L 183.796655 -76.308948 
L 187.187439 -75.617464 
L 190.674862 -74.925979 
L 194.213097 -74.234495 
L 197.748909 -73.543011 
L 201.222594 -72.851526 
L 204.569583 -72.160042 
L 207.722816 -71.468558 
L 210.615856 -70.777073 
L 213.18651 -70.085589 
L 215.380612 -69.394104 
L 217.155445 -68.70262 
L 218.482315 -68.011136 
L 219.347785 -67.319651 
L 219.753331 -66.628167 
L 219.713375 -65.936683 
L 219.251953 -65.245198 
L 218.398534 -64.553714 
L 217.183654 -63.86223 
L 215.635094 -63.170745 
L 213.775242 -62.479261 
L 211.620063 -61.787777 
L 209.179816 -61.096292 
L 206.461366 -60.404808 
L 203.471615 -59.713323 
L 200.221433 -59.021839 
L 196.729354 -58.330355 
L 193.024384 -57.63887 
L 189.147415 -56.947386 
L 185.150979 -56.255902 
L 181.097368 -55.564417 
L 177.055358 -54.872933 
L 173.096007 -54.181449 
L 169.288082 -53.489964 
L 165.693684 -52.79848 
L 162.364569 -52.106996 
L 159.339539 -51.415511 
L 156.64308 -50.724027 
L 154.285272 -50.032543 
L 152.262833 -49.341058 
L 150.561041 -48.649574 
L 149.156226 -47.958089 
L 148.01851 -47.266605 
L 147.114504 -46.575121 
L 146.409727 -45.883636 
z
" style="stroke: #3f3f3f; stroke-width: 1.25"/>
    </defs>
    <g clip-path="url(#p642ada4ed1)">
     <use xlink:href="#m6d9dd53959" x="0" y="288" style="fill: #3274a1; stroke: #3f3f3f; stroke-width: 1.25"/>
    </g>
   </g>
   <g id="PolyCollection_2">
    <defs>
     <path id="m718d97148e" d="M 334.372121 -46.404849 
L 330.937264 -46.404849 
L 330.24979 -48.396278 
L 329.350979 -50.387707 
L 328.202157 -52.379137 
L 326.767238 -54.370566 
L 325.016705 -56.361996 
L 322.932176 -58.353425 
L 320.511148 -60.344855 
L 317.771374 -62.336284 
L 314.754231 -64.327714 
L 311.526416 -66.319143 
L 308.179405 -68.310572 
L 304.826315 -70.302002 
L 301.596105 -72.293431 
L 298.625426 -74.284861 
L 296.048772 -76.27629 
L 293.987923 -78.26772 
L 292.541838 -80.259149 
L 291.778189 -82.250579 
L 291.727567 -84.242008 
L 292.381083 -86.233437 
L 293.691644 -88.224867 
L 295.578704 -90.216296 
L 297.935872 -92.207726 
L 300.640386 -94.199155 
L 303.563315 -96.190585 
L 306.579326 -98.182014 
L 309.57503 -100.173444 
L 312.455181 -102.164873 
L 315.146387 -104.156302 
L 317.598288 -106.147732 
L 319.782537 -108.139161 
L 321.690046 -110.130591 
L 323.327157 -112.12202 
L 324.711344 -114.11345 
L 325.867009 -116.104879 
L 326.821807 -118.096309 
L 327.603757 -120.087738 
L 328.239258 -122.079167 
L 328.751984 -124.070597 
L 329.162512 -126.062026 
L 329.488509 -128.053456 
L 329.745231 -130.044885 
L 329.946145 -132.036315 
L 330.103471 -134.027744 
L 330.228558 -136.019174 
L 330.332013 -138.010603 
L 330.423601 -140.002033 
L 330.511973 -141.993462 
L 330.604302 -143.984891 
L 330.70594 -145.976321 
L 330.820172 -147.96775 
L 330.948139 -149.95918 
L 331.088956 -151.950609 
L 331.240025 -153.942039 
L 331.397485 -155.933468 
L 331.556747 -157.924898 
L 331.713042 -159.916327 
L 331.861906 -161.907756 
L 331.999552 -163.899186 
L 332.123105 -165.890615 
L 332.230681 -167.882045 
L 332.321336 -169.873474 
L 332.394904 -171.864904 
L 332.451767 -173.856333 
L 332.492605 -175.847763 
L 332.518143 -177.839192 
L 332.528956 -179.830621 
L 332.525326 -181.822051 
L 332.507184 -183.81348 
L 332.474138 -185.80491 
L 332.425587 -187.796339 
L 332.36091 -189.787769 
L 332.279712 -191.779198 
L 332.182108 -193.770628 
L 332.068999 -195.762057 
L 331.94231 -197.753486 
L 331.805147 -199.744916 
L 331.661833 -201.736345 
L 331.517799 -203.727775 
L 331.379327 -205.719204 
L 331.253135 -207.710634 
L 331.145873 -209.702063 
L 331.063551 -211.693493 
L 331.010991 -213.684922 
L 330.991361 -215.676351 
L 331.005864 -217.667781 
L 331.053614 -219.65921 
L 331.131725 -221.65064 
L 331.235606 -223.642069 
L 331.359401 -225.633499 
L 331.496537 -227.624928 
L 331.640299 -229.616358 
L 331.784358 -231.607787 
L 331.923206 -233.599216 
L 332.052456 -235.590646 
L 332.168992 -237.582075 
L 332.270976 -239.573505 
L 332.357737 -241.564934 
L 332.429572 -243.556364 
L 332.879813 -243.556364 
L 332.879813 -243.556364 
L 332.951648 -241.564934 
L 333.038409 -239.573505 
L 333.140393 -237.582075 
L 333.256929 -235.590646 
L 333.386179 -233.599216 
L 333.525027 -231.607787 
L 333.669086 -229.616358 
L 333.812848 -227.624928 
L 333.949984 -225.633499 
L 334.073779 -223.642069 
L 334.17766 -221.65064 
L 334.255771 -219.65921 
L 334.303521 -217.667781 
L 334.318024 -215.676351 
L 334.298394 -213.684922 
L 334.245834 -211.693493 
L 334.163512 -209.702063 
L 334.05625 -207.710634 
L 333.930058 -205.719204 
L 333.791586 -203.727775 
L 333.647552 -201.736345 
L 333.504238 -199.744916 
L 333.367075 -197.753486 
L 333.240386 -195.762057 
L 333.127277 -193.770628 
L 333.029673 -191.779198 
L 332.948476 -189.787769 
L 332.883798 -187.796339 
L 332.835247 -185.80491 
L 332.802201 -183.81348 
L 332.784059 -181.822051 
L 332.780429 -179.830621 
L 332.791242 -177.839192 
L 332.816781 -175.847763 
L 332.857618 -173.856333 
L 332.914481 -171.864904 
L 332.988049 -169.873474 
L 333.078704 -167.882045 
L 333.18628 -165.890615 
L 333.309833 -163.899186 
L 333.447479 -161.907756 
L 333.596343 -159.916327 
L 333.752638 -157.924898 
L 333.9119 -155.933468 
L 334.06936 -153.942039 
L 334.220429 -151.950609 
L 334.361246 -149.95918 
L 334.489213 -147.96775 
L 334.603445 -145.976321 
L 334.705083 -143.984891 
L 334.797412 -141.993462 
L 334.885784 -140.002033 
L 334.977372 -138.010603 
L 335.080827 -136.019174 
L 335.205914 -134.027744 
L 335.36324 -132.036315 
L 335.564154 -130.044885 
L 335.820876 -128.053456 
L 336.146873 -126.062026 
L 336.557401 -124.070597 
L 337.070127 -122.079167 
L 337.705628 -120.087738 
L 338.487578 -118.096309 
L 339.442376 -116.104879 
L 340.598041 -114.11345 
L 341.982228 -112.12202 
L 343.619339 -110.130591 
L 345.526848 -108.139161 
L 347.711097 -106.147732 
L 350.162998 -104.156302 
L 352.854204 -102.164873 
L 355.734355 -100.173444 
L 358.730059 -98.182014 
L 361.74607 -96.190585 
L 364.668999 -94.199155 
L 367.373513 -92.207726 
L 369.730681 -90.216296 
L 371.617741 -88.224867 
L 372.928302 -86.233437 
L 373.581818 -84.242008 
L 373.531196 -82.250579 
L 372.767547 -80.259149 
L 371.321462 -78.26772 
L 369.260613 -76.27629 
L 366.683959 -74.284861 
L 363.71328 -72.293431 
L 360.48307 -70.302002 
L 357.12998 -68.310572 
L 353.782969 -66.319143 
L 350.555154 -64.327714 
L 347.538011 -62.336284 
L 344.798237 -60.344855 
L 342.377209 -58.353425 
L 340.29268 -56.361996 
L 338.542147 -54.370566 
L 337.107228 -52.379137 
L 335.958406 -50.387707 
L 335.059595 -48.396278 
L 334.372121 -46.404849 
z
" style="stroke: #3f3f3f; stroke-width: 1.25"/>
    </defs>
    <g clip-path="url(#p642ada4ed1)">
     <use xlink:href="#m718d97148e" x="0" y="288" style="fill: #3274a1; stroke: #3f3f3f; stroke-width: 1.25"/>
    </g>
   </g>
   <g id="matplotlib.axis_1">
    <g id="xtick_1">
     <g id="line2d_1">
      <defs>
       <path id="m9ca097fb58" d="M 0 0 
L 0 3.5 
" style="stroke: #000000; stroke-width: 0.8"/>
      </defs>
      <g>
       <use xlink:href="#m9ca097fb58" x="144.485756" y="252" style="stroke: #000000; stroke-width: 0.8"/>
      </g>
     </g>
     <g id="text_1">
      <!-- H264 -->
      <g transform="translate(131.18185 266.598437)scale(0.1 -0.1)">
       <defs>
        <path id="DejaVuSans-48" d="M 628 4666 
L 1259 4666 
L 1259 2753 
L 3553 2753 
L 3553 4666 
L 4184 4666 
L 4184 0 
L 3553 0 
L 3553 2222 
L 1259 2222 
L 1259 0 
L 628 0 
L 628 4666 
z
" transform="scale(0.015625)"/>
        <path id="DejaVuSans-32" d="M 1228 531 
L 3431 531 
L 3431 0 
L 469 0 
L 469 531 
Q 828 903 1448 1529 
Q 2069 2156 2228 2338 
Q 2531 2678 2651 2914 
Q 2772 3150 2772 3378 
Q 2772 3750 2511 3984 
Q 2250 4219 1831 4219 
Q 1534 4219 1204 4116 
Q 875 4013 500 3803 
L 500 4441 
Q 881 4594 1212 4672 
Q 1544 4750 1819 4750 
Q 2544 4750 2975 4387 
Q 3406 4025 3406 3419 
Q 3406 3131 3298 2873 
Q 3191 2616 2906 2266 
Q 2828 2175 2409 1742 
Q 1991 1309 1228 531 
z
" transform="scale(0.015625)"/>
        <path id="DejaVuSans-36" d="M 2113 2584 
Q 1688 2584 1439 2293 
Q 1191 2003 1191 1497 
Q 1191 994 1439 701 
Q 1688 409 2113 409 
Q 2538 409 2786 701 
Q 3034 994 3034 1497 
Q 3034 2003 2786 2293 
Q 2538 2584 2113 2584 
z
M 3366 4563 
L 3366 3988 
Q 3128 4100 2886 4159 
Q 2644 4219 2406 4219 
Q 1781 4219 1451 3797 
Q 1122 3375 1075 2522 
Q 1259 2794 1537 2939 
Q 1816 3084 2150 3084 
Q 2853 3084 3261 2657 
Q 3669 2231 3669 1497 
Q 3669 778 3244 343 
Q 2819 -91 2113 -91 
Q 1303 -91 875 529 
Q 447 1150 447 2328 
Q 447 3434 972 4092 
Q 1497 4750 2381 4750 
Q 2619 4750 2861 4703 
Q 3103 4656 3366 4563 
z
" transform="scale(0.015625)"/>
        <path id="DejaVuSans-34" d="M 2419 4116 
L 825 1625 
L 2419 1625 
L 2419 4116 
z
M 2253 4666 
L 3047 4666 
L 3047 1625 
L 3713 1625 
L 3713 1100 
L 3047 1100 
L 3047 0 
L 2419 0 
L 2419 1100 
L 313 1100 
L 313 1709 
L 2253 4666 
z
" transform="scale(0.015625)"/>
       </defs>
       <use xlink:href="#DejaVuSans-48"/>
       <use xlink:href="#DejaVuSans-32" x="75.195312"/>
       <use xlink:href="#DejaVuSans-36" x="138.818359"/>
       <use xlink:href="#DejaVuSans-34" x="202.441406"/>
      </g>
     </g>
    </g>
    <g id="xtick_2">
     <g id="line2d_2">
      <g>
       <use xlink:href="#m9ca097fb58" x="332.654693" y="252" style="stroke: #000000; stroke-width: 0.8"/>
      </g>
     </g>
     <g id="text_2">
      <!-- H265 -->
      <g transform="translate(319.350786 266.598437)scale(0.1 -0.1)">
       <defs>
        <path id="DejaVuSans-35" d="M 691 4666 
L 3169 4666 
L 3169 4134 
L 1269 4134 
L 1269 2991 
Q 1406 3038 1543 3061 
Q 1681 3084 1819 3084 
Q 2600 3084 3056 2656 
Q 3513 2228 3513 1497 
Q 3513 744 3044 326 
Q 2575 -91 1722 -91 
Q 1428 -91 1123 -41 
Q 819 9 494 109 
L 494 744 
Q 775 591 1075 516 
Q 1375 441 1709 441 
Q 2250 441 2565 725 
Q 2881 1009 2881 1497 
Q 2881 1984 2565 2268 
Q 2250 2553 1709 2553 
Q 1456 2553 1204 2497 
Q 953 2441 691 2322 
L 691 4666 
z
" transform="scale(0.015625)"/>
       </defs>
       <use xlink:href="#DejaVuSans-48"/>
       <use xlink:href="#DejaVuSans-32" x="75.195312"/>
       <use xlink:href="#DejaVuSans-36" x="138.818359"/>
       <use xlink:href="#DejaVuSans-35" x="202.441406"/>
      </g>
     </g>
    </g>
    <g id="text_3">
     <!-- Codec -->
     <g transform="translate(205.849219 280.276563)scale(0.1 -0.1)">
      <defs>
       <path id="DejaVuSans-43" d="M 4122 4306 
L 4122 3641 
Q 3803 3938 3442 4084 
Q 3081 4231 2675 4231 
Q 1875 4231 1450 3742 
Q 1025 3253 1025 2328 
Q 1025 1406 1450 917 
Q 1875 428 2675 428 
Q 3081 428 3442 575 
Q 3803 722 4122 1019 
L 4122 359 
Q 3791 134 3420 21 
Q 3050 -91 2638 -91 
Q 1578 -91 968 557 
Q 359 1206 359 2328 
Q 359 3453 968 4101 
Q 1578 4750 2638 4750 
Q 3056 4750 3426 4639 
Q 3797 4528 4122 4306 
z
" transform="scale(0.015625)"/>
       <path id="DejaVuSans-6f" d="M 1959 3097 
Q 1497 3097 1228 2736 
Q 959 2375 959 1747 
Q 959 1119 1226 758 
Q 1494 397 1959 397 
Q 2419 397 2687 759 
Q 2956 1122 2956 1747 
Q 2956 2369 2687 2733 
Q 2419 3097 1959 3097 
z
M 1959 3584 
Q 2709 3584 3137 3096 
Q 3566 2609 3566 1747 
Q 3566 888 3137 398 
Q 2709 -91 1959 -91 
Q 1206 -91 779 398 
Q 353 888 353 1747 
Q 353 2609 779 3096 
Q 1206 3584 1959 3584 
z
" transform="scale(0.015625)"/>
       <path id="DejaVuSans-64" d="M 2906 2969 
L 2906 4863 
L 3481 4863 
L 3481 0 
L 2906 0 
L 2906 525 
Q 2725 213 2448 61 
Q 2172 -91 1784 -91 
Q 1150 -91 751 415 
Q 353 922 353 1747 
Q 353 2572 751 3078 
Q 1150 3584 1784 3584 
Q 2172 3584 2448 3432 
Q 2725 3281 2906 2969 
z
M 947 1747 
Q 947 1113 1208 752 
Q 1469 391 1925 391 
Q 2381 391 2643 752 
Q 2906 1113 2906 1747 
Q 2906 2381 2643 2742 
Q 2381 3103 1925 3103 
Q 1469 3103 1208 2742 
Q 947 2381 947 1747 
z
" transform="scale(0.015625)"/>
       <path id="DejaVuSans-65" d="M 3597 1894 
L 3597 1613 
L 953 1613 
Q 991 1019 1311 708 
Q 1631 397 2203 397 
Q 2534 397 2845 478 
Q 3156 559 3463 722 
L 3463 178 
Q 3153 47 2828 -22 
Q 2503 -91 2169 -91 
Q 1331 -91 842 396 
Q 353 884 353 1716 
Q 353 2575 817 3079 
Q 1281 3584 2069 3584 
Q 2775 3584 3186 3129 
Q 3597 2675 3597 1894 
z
M 3022 2063 
Q 3016 2534 2758 2815 
Q 2500 3097 2075 3097 
Q 1594 3097 1305 2825 
Q 1016 2553 972 2059 
L 3022 2063 
z
" transform="scale(0.015625)"/>
       <path id="DejaVuSans-63" d="M 3122 3366 
L 3122 2828 
Q 2878 2963 2633 3030 
Q 2388 3097 2138 3097 
Q 1578 3097 1268 2742 
Q 959 2388 959 1747 
Q 959 1106 1268 751 
Q 1578 397 2138 397 
Q 2388 397 2633 464 
Q 2878 531 3122 666 
L 3122 134 
Q 2881 22 2623 -34 
Q 2366 -91 2075 -91 
Q 1284 -91 818 406 
Q 353 903 353 1747 
Q 353 2603 823 3093 
Q 1294 3584 2113 3584 
Q 2378 3584 2631 3529 
Q 2884 3475 3122 3366 
z
" transform="scale(0.015625)"/>
      </defs>
      <use xlink:href="#DejaVuSans-43"/>
      <use xlink:href="#DejaVuSans-6f" x="69.824219"/>
      <use xlink:href="#DejaVuSans-64" x="131.005859"/>
      <use xlink:href="#DejaVuSans-65" x="194.482422"/>
      <use xlink:href="#DejaVuSans-63" x="256.005859"/>
     </g>
    </g>
   </g>
   <g id="matplotlib.axis_2">
    <g id="ytick_1">
     <g id="line2d_3">
      <defs>
       <path id="m6eb4e9cfbd" d="M 0 0 
L -3.5 0 
" style="stroke: #000000; stroke-width: 0.8"/>
      </defs>
      <g>
       <use xlink:href="#m6eb4e9cfbd" x="54" y="225.359165" style="stroke: #000000; stroke-width: 0.8"/>
      </g>
     </g>
     <g id="text_4">
      <!-- 4.0 -->
      <g transform="translate(31.096875 229.158384)scale(0.1 -0.1)">
       <defs>
        <path id="DejaVuSans-2e" d="M 684 794 
L 1344 794 
L 1344 0 
L 684 0 
L 684 794 
z
" transform="scale(0.015625)"/>
        <path id="DejaVuSans-30" d="M 2034 4250 
Q 1547 4250 1301 3770 
Q 1056 3291 1056 2328 
Q 1056 1369 1301 889 
Q 1547 409 2034 409 
Q 2525 409 2770 889 
Q 3016 1369 3016 2328 
Q 3016 3291 2770 3770 
Q 2525 4250 2034 4250 
z
M 2034 4750 
Q 2819 4750 3233 4129 
Q 3647 3509 3647 2328 
Q 3647 1150 3233 529 
Q 2819 -91 2034 -91 
Q 1250 -91 836 529 
Q 422 1150 422 2328 
Q 422 3509 836 4129 
Q 1250 4750 2034 4750 
z
" transform="scale(0.015625)"/>
       </defs>
       <use xlink:href="#DejaVuSans-34"/>
       <use xlink:href="#DejaVuSans-2e" x="63.623047"/>
       <use xlink:href="#DejaVuSans-30" x="95.410156"/>
      </g>
     </g>
    </g>
    <g id="ytick_2">
     <g id="line2d_4">
      <g>
       <use xlink:href="#m6eb4e9cfbd" x="54" y="177.417382" style="stroke: #000000; stroke-width: 0.8"/>
      </g>
     </g>
     <g id="text_5">
      <!-- 4.5 -->
      <g transform="translate(31.096875 181.216601)scale(0.1 -0.1)">
       <use xlink:href="#DejaVuSans-34"/>
       <use xlink:href="#DejaVuSans-2e" x="63.623047"/>
       <use xlink:href="#DejaVuSans-35" x="95.410156"/>
      </g>
     </g>
    </g>
    <g id="ytick_3">
     <g id="line2d_5">
      <g>
       <use xlink:href="#m6eb4e9cfbd" x="54" y="129.475599" style="stroke: #000000; stroke-width: 0.8"/>
      </g>
     </g>
     <g id="text_6">
      <!-- 5.0 -->
      <g transform="translate(31.096875 133.274818)scale(0.1 -0.1)">
       <use xlink:href="#DejaVuSans-35"/>
       <use xlink:href="#DejaVuSans-2e" x="63.623047"/>
       <use xlink:href="#DejaVuSans-30" x="95.410156"/>
      </g>
     </g>
    </g>
    <g id="ytick_4">
     <g id="line2d_6">
      <g>
       <use xlink:href="#m6eb4e9cfbd" x="54" y="81.533816" style="stroke: #000000; stroke-width: 0.8"/>
      </g>
     </g>
     <g id="text_7">
      <!-- 5.5 -->
      <g transform="translate(31.096875 85.333035)scale(0.1 -0.1)">
       <use xlink:href="#DejaVuSans-35"/>
       <use xlink:href="#DejaVuSans-2e" x="63.623047"/>
       <use xlink:href="#DejaVuSans-35" x="95.410156"/>
      </g>
     </g>
    </g>
    <g id="text_8">
     <!-- Power (W) -->
     <g transform="translate(25.017187 168.828438)rotate(-90)scale(0.1 -0.1)">
      <defs>
       <path id="DejaVuSans-50" d="M 1259 4147 
L 1259 2394 
L 2053 2394 
Q 2494 2394 2734 2622 
Q 2975 2850 2975 3272 
Q 2975 3691 2734 3919 
Q 2494 4147 2053 4147 
L 1259 4147 
z
M 628 4666 
L 2053 4666 
Q 2838 4666 3239 4311 
Q 3641 3956 3641 3272 
Q 3641 2581 3239 2228 
Q 2838 1875 2053 1875 
L 1259 1875 
L 1259 0 
L 628 0 
L 628 4666 
z
" transform="scale(0.015625)"/>
       <path id="DejaVuSans-77" d="M 269 3500 
L 844 3500 
L 1563 769 
L 2278 3500 
L 2956 3500 
L 3675 769 
L 4391 3500 
L 4966 3500 
L 4050 0 
L 3372 0 
L 2619 2869 
L 1863 0 
L 1184 0 
L 269 3500 
z
" transform="scale(0.015625)"/>
       <path id="DejaVuSans-72" d="M 2631 2963 
Q 2534 3019 2420 3045 
Q 2306 3072 2169 3072 
Q 1681 3072 1420 2755 
Q 1159 2438 1159 1844 
L 1159 0 
L 581 0 
L 581 3500 
L 1159 3500 
L 1159 2956 
Q 1341 3275 1631 3429 
Q 1922 3584 2338 3584 
Q 2397 3584 2469 3576 
Q 2541 3569 2628 3553 
L 2631 2963 
z
" transform="scale(0.015625)"/>
       <path id="DejaVuSans-20" transform="scale(0.015625)"/>
       <path id="DejaVuSans-28" d="M 1984 4856 
Q 1566 4138 1362 3434 
Q 1159 2731 1159 2009 
Q 1159 1288 1364 580 
Q 1569 -128 1984 -844 
L 1484 -844 
Q 1016 -109 783 600 
Q 550 1309 550 2009 
Q 550 2706 781 3412 
Q 1013 4119 1484 4856 
L 1984 4856 
z
" transform="scale(0.015625)"/>
       <path id="DejaVuSans-57" d="M 213 4666 
L 850 4666 
L 1831 722 
L 2809 4666 
L 3519 4666 
L 4500 722 
L 5478 4666 
L 6119 4666 
L 4947 0 
L 4153 0 
L 3169 4050 
L 2175 0 
L 1381 0 
L 213 4666 
z
" transform="scale(0.015625)"/>
       <path id="DejaVuSans-29" d="M 513 4856 
L 1013 4856 
Q 1481 4119 1714 3412 
Q 1947 2706 1947 2009 
Q 1947 1309 1714 600 
Q 1481 -109 1013 -844 
L 513 -844 
Q 928 -128 1133 580 
Q 1338 1288 1338 2009 
Q 1338 2731 1133 3434 
Q 928 4138 513 4856 
z
" transform="scale(0.015625)"/>
      </defs>
      <use xlink:href="#DejaVuSans-50"/>
      <use xlink:href="#DejaVuSans-6f" x="56.677734"/>
      <use xlink:href="#DejaVuSans-77" x="117.859375"/>
      <use xlink:href="#DejaVuSans-65" x="199.646484"/>
      <use xlink:href="#DejaVuSans-72" x="261.169922"/>
      <use xlink:href="#DejaVuSans-20" x="302.283203"/>
      <use xlink:href="#DejaVuSans-28" x="334.070312"/>
      <use xlink:href="#DejaVuSans-57" x="373.083984"/>
      <use xlink:href="#DejaVuSans-29" x="471.960938"/>
     </g>
    </g>
   </g>
   <g id="line2d_7">
    <path d="M 144.485756 232.059521 
L 144.485756 202.477945 
" clip-path="url(#p642ada4ed1)" style="fill: none; stroke: #3f3f3f; stroke-width: 1.875; stroke-linecap: square"/>
   </g>
   <g id="line2d_8">
    <path d="M 144.485756 226.797967 
L 144.485756 215.924193 
" clip-path="url(#p642ada4ed1)" style="fill: none; stroke: #3f3f3f; stroke-width: 5.625; stroke-linecap: square"/>
   </g>
   <g id="line2d_9">
    <path d="M 144.485756 220.838553 
" clip-path="url(#p642ada4ed1)" style="fill: none; stroke: #3f3f3f; stroke-width: 1.5; stroke-linecap: square"/>
    <defs>
     <path id="m02caee3890" d="M 2.34375 0 
L -2.34375 -0 
" style="stroke: #ffffff; stroke-width: 1.125"/>
    </defs>
    <g clip-path="url(#p642ada4ed1)">
     <use xlink:href="#m02caee3890" x="144.485756" y="220.838553" style="fill: #ffffff; stroke: #ffffff; stroke-width: 1.125"/>
    </g>
   </g>
   <g id="line2d_10">
    <path d="M 332.654693 213.8656 
L 332.654693 194.001315 
" clip-path="url(#p642ada4ed1)" style="fill: none; stroke: #3f3f3f; stroke-width: 1.875; stroke-linecap: square"/>
   </g>
   <g id="line2d_11">
    <path d="M 332.654693 208.136834 
L 332.654693 201.270932 
" clip-path="url(#p642ada4ed1)" style="fill: none; stroke: #3f3f3f; stroke-width: 5.625; stroke-linecap: square"/>
   </g>
   <g id="line2d_12">
    <path d="M 332.654693 204.217489 
" clip-path="url(#p642ada4ed1)" style="fill: none; stroke: #3f3f3f; stroke-width: 1.5; stroke-linecap: square"/>
    <g clip-path="url(#p642ada4ed1)">
     <use xlink:href="#m02caee3890" x="332.654693" y="204.217489" style="fill: #ffffff; stroke: #ffffff; stroke-width: 1.125"/>
    </g>
   </g>
   <g id="patch_3">
    <path d="M 54 252 
L 54 34.56 
" style="fill: none; stroke: #000000; stroke-width: 0.8; stroke-linejoin: miter; stroke-linecap: square"/>
   </g>
   <g id="patch_4">
    <path d="M 388.8 252 
L 388.8 34.56 
" style="fill: none; stroke: #000000; stroke-width: 0.8; stroke-linejoin: miter; stroke-linecap: square"/>
   </g>
   <g id="patch_5">
    <path d="M 54 252 
L 388.8 252 
" style="fill: none; stroke: #000000; stroke-width: 0.8; stroke-linejoin: miter; stroke-linecap: square"/>
   </g>
   <g id="patch_6">
    <path d="M 54 34.56 
L 388.8 34.56 
" style="fill: none; stroke: #000000; stroke-width: 0.8; stroke-linejoin: miter; stroke-linecap: square"/>
   </g>
  </g>
 </g>
 <defs>
  <clipPath id="p642ada4ed1">
   <rect x="54" y="34.56" width="334.8" height="217.44"/>
  </clipPath>
 </defs>
</svg>
