<?xml version="1.0" encoding="utf-8" standalone="no"?>
<!DOCTYPE svg PUBLIC "-//W3C//DTD SVG 1.1//EN"
  "http://www.w3.org/Graphics/SVG/1.1/DTD/svg11.dtd">
<svg xmlns:xlink="http://www.w3.org/1999/xlink" width="432pt" height="288pt" viewBox="0 0 432 288" xmlns="http://www.w3.org/2000/svg" version="1.1">
 <metadata>
  <rdf:RDF xmlns:dc="http://purl.org/dc/elements/1.1/" xmlns:cc="http://creativecommons.org/ns#" xmlns:rdf="http://www.w3.org/1999/02/22-rdf-syntax-ns#">
   <cc:Work>
    <dc:type rdf:resource="http://purl.org/dc/dcmitype/StillImage"/>
    <dc:date>2024-03-01T18:26:10.394065</dc:date>
    <dc:format>image/svg+xml</dc:format>
    <dc:creator>
     <cc:Agent>
      <dc:title>Matplotlib v3.5.2, https://matplotlib.org/</dc:title>
     </cc:Agent>
    </dc:creator>
   </cc:Work>
  </rdf:RDF>
 </metadata>
 <defs>
  <style type="text/css">*{stroke-linejoin: round; stroke-linecap: butt}</style>
 </defs>
 <g id="figure_1">
  <g id="patch_1">
   <path d="M 0 288 
L 432 288 
L 432 0 
L 0 0 
L 0 288 
z
" style="fill: none"/>
  </g>
  <g id="axes_1">
   <g id="patch_2">
    <path d="M 54 252 
L 388.8 252 
L 388.8 34.56 
L 54 34.56 
z
" style="fill: #ffffff"/>
   </g>
   <g id="PolyCollection_1">
    <defs>
     <path id="medbe544f86" d="M 111.349156 -110.172235 
L 109.771272 -110.172235 
L 109.524835 -111.383357 
L 109.21758 -112.59448 
L 108.839482 -113.805602 
L 108.380172 -115.016724 
L 107.829243 -116.227847 
L 107.176612 -117.438969 
L 106.412919 -118.650091 
L 105.529944 -119.861214 
L 104.52104 -121.072336 
L 103.381547 -122.283458 
L 102.109174 -123.494581 
L 100.704356 -124.705703 
L 99.170534 -125.916825 
L 97.514396 -127.127948 
L 95.746015 -128.33907 
L 93.878924 -129.550192 
L 91.930068 -130.761315 
L 89.919653 -131.972437 
L 87.870849 -133.183559 
L 85.809351 -134.394682 
L 83.762779 -135.605804 
L 81.759929 -136.816926 
L 79.829882 -138.028049 
L 78.001013 -139.239171 
L 76.299956 -140.450293 
L 74.750572 -141.661416 
L 73.373017 -142.872538 
L 72.18297 -144.08366 
L 71.191088 -145.294783 
L 70.402748 -146.505905 
L 69.818092 -147.717027 
L 69.432367 -148.92815 
L 69.236551 -150.139272 
L 69.218182 -151.350394 
L 69.362342 -152.561517 
L 69.652705 -153.772639 
L 70.072565 -154.983761 
L 70.605786 -156.194884 
L 71.237597 -157.406006 
L 71.955206 -158.617128 
L 72.748205 -159.828251 
L 73.60875 -161.039373 
L 74.531525 -162.250495 
L 75.51351 -163.461618 
L 76.553554 -164.67274 
L 77.651818 -165.883862 
L 78.809088 -167.094985 
L 80.026031 -168.306107 
L 81.302435 -169.517229 
L 82.636498 -170.728352 
L 84.024216 -171.939474 
L 85.45895 -173.150597 
L 86.931195 -174.361719 
L 88.428597 -175.572841 
L 89.936235 -176.783964 
L 91.437131 -177.995086 
L 92.91298 -179.206208 
L 94.344998 -180.417331 
L 95.714859 -181.628453 
L 97.005594 -182.839575 
L 98.202405 -184.050698 
L 99.293315 -185.26182 
L 100.269617 -186.472942 
L 101.126107 -187.684065 
L 101.861092 -188.895187 
L 102.476235 -190.106309 
L 102.976248 -191.317432 
L 103.368502 -192.528554 
L 103.662605 -193.739676 
L 103.869969 -194.950799 
L 104.003409 -196.161921 
L 104.076769 -197.373043 
L 104.104564 -198.584166 
L 104.101633 -199.795288 
L 104.082778 -201.00641 
L 104.062365 -202.217533 
L 104.053901 -203.428655 
L 104.069573 -204.639777 
L 104.119793 -205.8509 
L 104.212771 -207.062022 
L 104.354161 -208.273144 
L 104.546827 -209.484267 
L 104.790751 -210.695389 
L 105.08312 -211.906511 
L 105.418583 -213.117634 
L 105.789666 -214.328756 
L 106.187316 -215.539878 
L 106.601523 -216.751001 
L 107.021967 -217.962123 
L 107.438645 -219.173245 
L 107.842411 -220.384368 
L 108.225415 -221.59549 
L 108.581395 -222.806612 
L 108.905827 -224.017735 
L 109.195948 -225.228857 
L 109.450639 -226.439979 
L 109.670235 -227.651102 
L 109.856263 -228.862224 
L 110.011148 -230.073346 
L 111.10928 -230.073346 
L 111.10928 -230.073346 
L 111.264166 -228.862224 
L 111.450193 -227.651102 
L 111.669789 -226.439979 
L 111.92448 -225.228857 
L 112.214601 -224.017735 
L 112.539034 -222.806612 
L 112.895013 -221.59549 
L 113.278017 -220.384368 
L 113.681783 -219.173245 
L 114.098461 -217.962123 
L 114.518905 -216.751001 
L 114.933112 -215.539878 
L 115.330762 -214.328756 
L 115.701845 -213.117634 
L 116.037308 -211.906511 
L 116.329677 -210.695389 
L 116.573601 -209.484267 
L 116.766267 -208.273144 
L 116.907657 -207.062022 
L 117.000635 -205.8509 
L 117.050855 -204.639777 
L 117.066527 -203.428655 
L 117.058063 -202.217533 
L 117.03765 -201.00641 
L 117.018795 -199.795288 
L 117.015864 -198.584166 
L 117.043659 -197.373043 
L 117.117019 -196.161921 
L 117.250459 -194.950799 
L 117.457823 -193.739676 
L 117.751926 -192.528554 
L 118.14418 -191.317432 
L 118.644193 -190.106309 
L 119.259336 -188.895187 
L 119.994321 -187.684065 
L 120.850811 -186.472942 
L 121.827113 -185.26182 
L 122.918023 -184.050698 
L 124.114834 -182.839575 
L 125.405569 -181.628453 
L 126.77543 -180.417331 
L 128.207448 -179.206208 
L 129.683297 -177.995086 
L 131.184194 -176.783964 
L 132.691831 -175.572841 
L 134.189233 -174.361719 
L 135.661478 -173.150597 
L 137.096212 -171.939474 
L 138.483931 -170.728352 
L 139.817993 -169.517229 
L 141.094397 -168.306107 
L 142.31134 -167.094985 
L 143.46861 -165.883862 
L 144.566874 -164.67274 
L 145.606918 -163.461618 
L 146.588903 -162.250495 
L 147.511678 -161.039373 
L 148.372223 -159.828251 
L 149.165222 -158.617128 
L 149.882831 -157.406006 
L 150.514642 -156.194884 
L 151.047863 -154.983761 
L 151.467723 -153.772639 
L 151.758086 -152.561517 
L 151.902246 -151.350394 
L 151.883877 -150.139272 
L 151.688061 -148.92815 
L 151.302336 -147.717027 
L 150.71768 -146.505905 
L 149.92934 -145.294783 
L 148.937458 -144.08366 
L 147.747411 -142.872538 
L 146.369856 -141.661416 
L 144.820472 -140.450293 
L 143.119415 -139.239171 
L 141.290546 -138.028049 
L 139.360499 -136.816926 
L 137.357649 -135.605804 
L 135.311077 -134.394682 
L 133.249579 -133.183559 
L 131.200775 -131.972437 
L 129.19036 -130.761315 
L 127.241505 -129.550192 
L 125.374413 -128.33907 
L 123.606033 -127.127948 
L 121.949894 -125.916825 
L 120.416073 -124.705703 
L 119.011254 -123.494581 
L 117.738881 -122.283458 
L 116.599388 -121.072336 
L 115.590484 -119.861214 
L 114.70751 -118.650091 
L 113.943816 -117.438969 
L 113.291185 -116.227847 
L 112.740256 -115.016724 
L 112.280946 -113.805602 
L 111.902848 -112.59448 
L 111.595593 -111.383357 
L 111.349156 -110.172235 
z
" style="stroke: #3f3f3f; stroke-width: 1.25"/>
    </defs>
    <g clip-path="url(#p046f52c2b7)">
     <use xlink:href="#medbe544f86" x="0" y="288" style="fill: #3274a1; stroke: #3f3f3f; stroke-width: 1.25"/>
    </g>
   </g>
   <g id="PolyCollection_2">
    <defs>
     <path id="mb093624c25" d="M 221.930393 -45.883636 
L 221.047818 -45.883636 
L 220.919787 -47.070355 
L 220.765702 -48.257074 
L 220.583565 -49.443793 
L 220.372062 -50.630512 
L 220.13072 -51.817231 
L 219.859998 -53.00395 
L 219.561298 -54.190669 
L 219.236888 -55.377387 
L 218.889723 -56.564106 
L 218.523183 -57.750825 
L 218.140755 -58.937544 
L 217.745688 -60.124263 
L 217.340665 -61.310982 
L 216.927532 -62.497701 
L 216.507108 -63.68442 
L 216.079094 -64.871138 
L 215.642076 -66.057857 
L 215.193592 -67.244576 
L 214.730227 -68.431295 
L 214.247687 -69.618014 
L 213.740827 -70.804733 
L 213.20359 -71.991452 
L 212.628879 -73.178171 
L 212.008395 -74.364889 
L 211.332499 -75.551608 
L 210.590177 -76.738327 
L 209.769204 -77.925046 
L 208.856571 -79.111765 
L 207.839201 -80.298484 
L 206.704963 -81.485203 
L 205.443913 -82.671922 
L 204.049645 -83.85864 
L 202.520613 -85.045359 
L 200.86125 -86.232078 
L 199.082728 -87.418797 
L 197.203217 -88.605516 
L 195.247578 -89.792235 
L 193.246466 -90.978954 
L 191.234899 -92.165673 
L 189.250412 -93.352391 
L 187.330969 -94.53911 
L 185.512831 -95.725829 
L 183.82859 -96.912548 
L 182.305555 -98.099267 
L 180.964657 -99.285986 
L 179.819957 -100.472705 
L 178.878802 -101.659424 
L 178.142597 -102.846142 
L 177.608077 -104.032861 
L 177.268927 -105.21958 
L 177.117549 -106.406299 
L 177.146729 -107.593018 
L 177.351004 -108.779737 
L 177.727514 -109.966456 
L 178.276215 -111.153175 
L 178.999389 -112.339893 
L 179.900503 -113.526612 
L 180.982528 -114.713331 
L 182.245966 -115.90005 
L 183.68684 -117.086769 
L 185.294971 -118.273488 
L 187.052794 -119.460207 
L 188.934962 -120.646926 
L 190.908834 -121.833645 
L 192.935866 -123.020363 
L 194.973775 -124.207082 
L 196.979254 -125.393801 
L 198.910939 -126.58052 
L 200.732295 -127.767239 
L 202.4141 -128.953958 
L 203.936258 -130.140677 
L 205.288779 -131.327396 
L 206.471839 -132.514114 
L 207.494976 -133.700833 
L 208.37554 -134.887552 
L 209.136614 -136.074271 
L 209.80463 -137.26099 
L 210.406962 -138.447709 
L 210.969681 -139.634428 
L 211.515698 -140.821147 
L 212.063384 -142.007865 
L 212.625752 -143.194584 
L 213.210184 -144.381303 
L 213.818666 -145.568022 
L 214.448427 -146.754741 
L 215.092882 -147.94146 
L 215.742741 -149.128179 
L 216.387183 -150.314898 
L 217.014961 -151.501616 
L 217.615386 -152.688335 
L 218.179102 -153.875054 
L 218.698639 -155.061773 
L 219.168724 -156.248492 
L 219.586371 -157.435211 
L 219.950784 -158.62193 
L 220.263106 -159.808649 
L 220.526078 -160.995367 
L 220.743635 -162.182086 
L 220.920504 -163.368805 
L 222.057707 -163.368805 
L 222.057707 -163.368805 
L 222.234576 -162.182086 
L 222.452133 -160.995367 
L 222.715105 -159.808649 
L 223.027427 -158.62193 
L 223.39184 -157.435211 
L 223.809487 -156.248492 
L 224.279572 -155.061773 
L 224.799109 -153.875054 
L 225.362825 -152.688335 
L 225.96325 -151.501616 
L 226.591028 -150.314898 
L 227.23547 -149.128179 
L 227.885329 -147.94146 
L 228.529784 -146.754741 
L 229.159545 -145.568022 
L 229.768027 -144.381303 
L 230.352459 -143.194584 
L 230.914827 -142.007865 
L 231.462513 -140.821147 
L 232.00853 -139.634428 
L 232.571249 -138.447709 
L 233.173581 -137.26099 
L 233.841597 -136.074271 
L 234.602671 -134.887552 
L 235.483235 -133.700833 
L 236.506372 -132.514114 
L 237.689432 -131.327396 
L 239.041953 -130.140677 
L 240.564111 -128.953958 
L 242.245916 -127.767239 
L 244.067272 -126.58052 
L 245.998957 -125.393801 
L 248.004436 -124.207082 
L 250.042345 -123.020363 
L 252.069377 -121.833645 
L 254.043249 -120.646926 
L 255.925417 -119.460207 
L 257.68324 -118.273488 
L 259.291371 -117.086769 
L 260.732245 -115.90005 
L 261.995683 -114.713331 
L 263.077708 -113.526612 
L 263.978822 -112.339893 
L 264.701996 -111.153175 
L 265.250697 -109.966456 
L 265.627207 -108.779737 
L 265.831482 -107.593018 
L 265.860662 -106.406299 
L 265.709284 -105.21958 
L 265.370134 -104.032861 
L 264.835614 -102.846142 
L 264.099409 -101.659424 
L 263.158254 -100.472705 
L 262.013554 -99.285986 
L 260.672656 -98.099267 
L 259.149621 -96.912548 
L 257.46538 -95.725829 
L 255.647242 -94.53911 
L 253.727799 -93.352391 
L 251.743312 -92.165673 
L 249.731744 -90.978954 
L 247.730633 -89.792235 
L 245.774994 -88.605516 
L 243.895483 -87.418797 
L 242.116961 -86.232078 
L 240.457598 -85.045359 
L 238.928566 -83.85864 
L 237.534298 -82.671922 
L 236.273248 -81.485203 
L 235.13901 -80.298484 
L 234.12164 -79.111765 
L 233.209007 -77.925046 
L 232.388034 -76.738327 
L 231.645712 -75.551608 
L 230.969816 -74.364889 
L 230.349332 -73.178171 
L 229.774621 -71.991452 
L 229.237384 -70.804733 
L 228.730524 -69.618014 
L 228.247984 -68.431295 
L 227.784619 -67.244576 
L 227.336135 -66.057857 
L 226.899117 -64.871138 
L 226.471103 -63.68442 
L 226.050679 -62.497701 
L 225.637545 -61.310982 
L 225.232523 -60.124263 
L 224.837456 -58.937544 
L 224.455028 -57.750825 
L 224.088488 -56.564106 
L 223.741323 -55.377387 
L 223.416913 -54.190669 
L 223.118213 -53.00395 
L 222.847491 -51.817231 
L 222.606149 -50.630512 
L 222.394646 -49.443793 
L 222.212509 -48.257074 
L 222.058424 -47.070355 
L 221.930393 -45.883636 
z
" style="stroke: #3f3f3f; stroke-width: 1.25"/>
    </defs>
    <g clip-path="url(#p046f52c2b7)">
     <use xlink:href="#mb093624c25" x="0" y="288" style="fill: #3274a1; stroke: #3f3f3f; stroke-width: 1.25"/>
    </g>
   </g>
   <g id="PolyCollection_3">
    <defs>
     <path id="m1da9645d9a" d="M 332.860715 -61.46389 
L 331.975279 -61.46389 
L 331.80461 -63.303208 
L 331.585241 -65.142526 
L 331.309676 -66.981844 
L 330.971235 -68.821162 
L 330.564621 -70.660479 
L 330.086405 -72.499797 
L 329.535345 -74.339115 
L 328.912475 -76.178433 
L 328.220891 -78.017751 
L 327.465261 -79.857069 
L 326.651084 -81.696387 
L 325.783791 -83.535705 
L 324.867813 -85.375023 
L 323.905737 -87.214341 
L 322.897679 -89.053659 
L 321.840945 -90.892977 
L 320.73004 -92.732294 
L 319.557005 -94.571612 
L 318.312072 -96.41093 
L 316.984571 -98.250248 
L 315.564048 -100.089566 
L 314.041558 -101.928884 
L 312.411086 -103.768202 
L 310.671074 -105.60752 
L 308.825988 -107.446838 
L 306.887831 -109.286156 
L 304.877464 -111.125474 
L 302.825526 -112.964792 
L 300.772757 -114.804109 
L 298.76951 -116.643427 
L 296.874287 -118.482745 
L 295.151266 -120.322063 
L 293.666872 -122.161381 
L 292.485627 -124.000699 
L 291.66564 -125.840017 
L 291.254176 -127.679335 
L 291.283798 -129.518653 
L 291.769546 -131.357971 
L 292.707471 -133.197289 
L 294.074722 -135.036607 
L 295.83115 -136.875924 
L 297.922219 -138.715242 
L 300.282849 -140.55456 
L 302.841736 -142.393878 
L 305.525671 -144.233196 
L 308.263456 -146.072514 
L 310.989117 -147.911832 
L 313.644274 -149.75115 
L 316.179647 -151.590468 
L 318.555799 -153.429786 
L 320.743266 -155.269104 
L 322.722229 -157.108422 
L 324.481869 -158.947739 
L 326.019515 -160.787057 
L 327.339618 -162.626375 
L 328.45261 -164.465693 
L 329.373656 -166.305011 
L 330.121348 -168.144329 
L 330.71638 -169.983647 
L 331.180285 -171.822965 
L 331.534292 -173.662283 
L 331.798374 -175.501601 
L 331.990521 -177.340919 
L 332.126254 -179.180237 
L 332.218382 -181.019554 
L 332.276945 -182.858872 
L 332.309325 -184.69819 
L 332.32046 -186.537508 
L 332.313144 -188.376826 
L 332.28837 -190.216144 
L 332.245728 -192.055462 
L 332.183837 -193.89478 
L 332.100838 -195.734098 
L 331.994927 -197.573416 
L 331.864924 -199.412734 
L 331.710846 -201.252052 
L 331.53441 -203.091369 
L 331.339423 -204.930687 
L 331.131947 -206.770005 
L 330.920213 -208.609323 
L 330.714212 -210.448641 
L 330.524996 -212.287959 
L 330.363734 -214.127277 
L 330.24064 -215.966595 
L 330.163907 -217.805913 
L 330.138804 -219.645231 
L 330.167083 -221.484549 
L 330.246772 -223.323867 
L 330.372407 -225.163184 
L 330.535647 -227.002502 
L 330.726192 -228.84182 
L 330.932855 -230.681138 
L 331.144629 -232.520456 
L 331.351628 -234.359774 
L 331.54577 -236.199092 
L 331.721179 -238.03841 
L 331.874275 -239.877728 
L 332.003613 -241.717046 
L 332.109539 -243.556364 
L 332.726455 -243.556364 
L 332.726455 -243.556364 
L 332.832381 -241.717046 
L 332.961719 -239.877728 
L 333.114815 -238.03841 
L 333.290224 -236.199092 
L 333.484366 -234.359774 
L 333.691365 -232.520456 
L 333.903139 -230.681138 
L 334.109802 -228.84182 
L 334.300347 -227.002502 
L 334.463587 -225.163184 
L 334.589222 -223.323867 
L 334.668911 -221.484549 
L 334.69719 -219.645231 
L 334.672087 -217.805913 
L 334.595353 -215.966595 
L 334.47226 -214.127277 
L 334.310998 -212.287959 
L 334.121781 -210.448641 
L 333.91578 -208.609323 
L 333.704047 -206.770005 
L 333.496571 -204.930687 
L 333.301583 -203.091369 
L 333.125148 -201.252052 
L 332.97107 -199.412734 
L 332.841067 -197.573416 
L 332.735156 -195.734098 
L 332.652157 -193.89478 
L 332.590266 -192.055462 
L 332.547624 -190.216144 
L 332.52285 -188.376826 
L 332.515534 -186.537508 
L 332.526669 -184.69819 
L 332.559049 -182.858872 
L 332.617612 -181.019554 
L 332.70974 -179.180237 
L 332.845473 -177.340919 
L 333.037619 -175.501601 
L 333.301702 -173.662283 
L 333.655709 -171.822965 
L 334.119614 -169.983647 
L 334.714646 -168.144329 
L 335.462338 -166.305011 
L 336.383384 -164.465693 
L 337.496376 -162.626375 
L 338.816479 -160.787057 
L 340.354125 -158.947739 
L 342.113765 -157.108422 
L 344.092728 -155.269104 
L 346.280195 -153.429786 
L 348.656347 -151.590468 
L 351.19172 -149.75115 
L 353.846877 -147.911832 
L 356.572538 -146.072514 
L 359.310323 -144.233196 
L 361.994258 -142.393878 
L 364.553144 -140.55456 
L 366.913775 -138.715242 
L 369.004844 -136.875924 
L 370.761272 -135.036607 
L 372.128523 -133.197289 
L 373.066448 -131.357971 
L 373.552196 -129.518653 
L 373.581818 -127.679335 
L 373.170354 -125.840017 
L 372.350367 -124.000699 
L 371.169122 -122.161381 
L 369.684727 -120.322063 
L 367.961707 -118.482745 
L 366.066484 -116.643427 
L 364.063237 -114.804109 
L 362.010468 -112.964792 
L 359.95853 -111.125474 
L 357.948163 -109.286156 
L 356.010006 -107.446838 
L 354.16492 -105.60752 
L 352.424907 -103.768202 
L 350.794435 -101.928884 
L 349.271946 -100.089566 
L 347.851423 -98.250248 
L 346.523922 -96.41093 
L 345.278989 -94.571612 
L 344.105954 -92.732294 
L 342.995049 -90.892977 
L 341.938315 -89.053659 
L 340.930257 -87.214341 
L 339.968181 -85.375023 
L 339.052203 -83.535705 
L 338.18491 -81.696387 
L 337.370733 -79.857069 
L 336.615103 -78.017751 
L 335.923519 -76.178433 
L 335.300648 -74.339115 
L 334.749589 -72.499797 
L 334.271373 -70.660479 
L 333.864759 -68.821162 
L 333.526318 -66.981844 
L 333.250753 -65.142526 
L 333.031384 -63.303208 
L 332.860715 -61.46389 
z
" style="stroke: #3f3f3f; stroke-width: 1.25"/>
    </defs>
    <g clip-path="url(#p046f52c2b7)">
     <use xlink:href="#m1da9645d9a" x="0" y="288" style="fill: #3274a1; stroke: #3f3f3f; stroke-width: 1.25"/>
    </g>
   </g>
   <g id="matplotlib.axis_1">
    <g id="xtick_1">
     <g id="line2d_1">
      <defs>
       <path id="mf93dd49e8b" d="M 0 0 
L 0 3.5 
" style="stroke: #000000; stroke-width: 0.8"/>
      </defs>
      <g>
       <use xlink:href="#mf93dd49e8b" x="110.560214" y="252" style="stroke: #000000; stroke-width: 0.8"/>
      </g>
     </g>
     <g id="text_1">
      <!-- AV1 -->
      <g transform="translate(100.857089 266.598437)scale(0.1 -0.1)">
       <defs>
        <path id="DejaVuSans-41" d="M 2188 4044 
L 1331 1722 
L 3047 1722 
L 2188 4044 
z
M 1831 4666 
L 2547 4666 
L 4325 0 
L 3669 0 
L 3244 1197 
L 1141 1197 
L 716 0 
L 50 0 
L 1831 4666 
z
" transform="scale(0.015625)"/>
        <path id="DejaVuSans-56" d="M 1831 0 
L 50 4666 
L 709 4666 
L 2188 738 
L 3669 4666 
L 4325 4666 
L 2547 0 
L 1831 0 
z
" transform="scale(0.015625)"/>
        <path id="DejaVuSans-31" d="M 794 531 
L 1825 531 
L 1825 4091 
L 703 3866 
L 703 4441 
L 1819 4666 
L 2450 4666 
L 2450 531 
L 3481 531 
L 3481 0 
L 794 0 
L 794 531 
z
" transform="scale(0.015625)"/>
       </defs>
       <use xlink:href="#DejaVuSans-41"/>
       <use xlink:href="#DejaVuSans-56" x="62.033203"/>
       <use xlink:href="#DejaVuSans-31" x="130.441406"/>
      </g>
     </g>
    </g>
    <g id="xtick_2">
     <g id="line2d_2">
      <g>
       <use xlink:href="#mf93dd49e8b" x="221.489105" y="252" style="stroke: #000000; stroke-width: 0.8"/>
      </g>
     </g>
     <g id="text_2">
      <!-- H264 -->
      <g transform="translate(208.185199 266.598437)scale(0.1 -0.1)">
       <defs>
        <path id="DejaVuSans-48" d="M 628 4666 
L 1259 4666 
L 1259 2753 
L 3553 2753 
L 3553 4666 
L 4184 4666 
L 4184 0 
L 3553 0 
L 3553 2222 
L 1259 2222 
L 1259 0 
L 628 0 
L 628 4666 
z
" transform="scale(0.015625)"/>
        <path id="DejaVuSans-32" d="M 1228 531 
L 3431 531 
L 3431 0 
L 469 0 
L 469 531 
Q 828 903 1448 1529 
Q 2069 2156 2228 2338 
Q 2531 2678 2651 2914 
Q 2772 3150 2772 3378 
Q 2772 3750 2511 3984 
Q 2250 4219 1831 4219 
Q 1534 4219 1204 4116 
Q 875 4013 500 3803 
L 500 4441 
Q 881 4594 1212 4672 
Q 1544 4750 1819 4750 
Q 2544 4750 2975 4387 
Q 3406 4025 3406 3419 
Q 3406 3131 3298 2873 
Q 3191 2616 2906 2266 
Q 2828 2175 2409 1742 
Q 1991 1309 1228 531 
z
" transform="scale(0.015625)"/>
        <path id="DejaVuSans-36" d="M 2113 2584 
Q 1688 2584 1439 2293 
Q 1191 2003 1191 1497 
Q 1191 994 1439 701 
Q 1688 409 2113 409 
Q 2538 409 2786 701 
Q 3034 994 3034 1497 
Q 3034 2003 2786 2293 
Q 2538 2584 2113 2584 
z
M 3366 4563 
L 3366 3988 
Q 3128 4100 2886 4159 
Q 2644 4219 2406 4219 
Q 1781 4219 1451 3797 
Q 1122 3375 1075 2522 
Q 1259 2794 1537 2939 
Q 1816 3084 2150 3084 
Q 2853 3084 3261 2657 
Q 3669 2231 3669 1497 
Q 3669 778 3244 343 
Q 2819 -91 2113 -91 
Q 1303 -91 875 529 
Q 447 1150 447 2328 
Q 447 3434 972 4092 
Q 1497 4750 2381 4750 
Q 2619 4750 2861 4703 
Q 3103 4656 3366 4563 
z
" transform="scale(0.015625)"/>
        <path id="DejaVuSans-34" d="M 2419 4116 
L 825 1625 
L 2419 1625 
L 2419 4116 
z
M 2253 4666 
L 3047 4666 
L 3047 1625 
L 3713 1625 
L 3713 1100 
L 3047 1100 
L 3047 0 
L 2419 0 
L 2419 1100 
L 313 1100 
L 313 1709 
L 2253 4666 
z
" transform="scale(0.015625)"/>
       </defs>
       <use xlink:href="#DejaVuSans-48"/>
       <use xlink:href="#DejaVuSans-32" x="75.195312"/>
       <use xlink:href="#DejaVuSans-36" x="138.818359"/>
       <use xlink:href="#DejaVuSans-34" x="202.441406"/>
      </g>
     </g>
    </g>
    <g id="xtick_3">
     <g id="line2d_3">
      <g>
       <use xlink:href="#mf93dd49e8b" x="332.417997" y="252" style="stroke: #000000; stroke-width: 0.8"/>
      </g>
     </g>
     <g id="text_3">
      <!-- H265 -->
      <g transform="translate(319.114091 266.598437)scale(0.1 -0.1)">
       <defs>
        <path id="DejaVuSans-35" d="M 691 4666 
L 3169 4666 
L 3169 4134 
L 1269 4134 
L 1269 2991 
Q 1406 3038 1543 3061 
Q 1681 3084 1819 3084 
Q 2600 3084 3056 2656 
Q 3513 2228 3513 1497 
Q 3513 744 3044 326 
Q 2575 -91 1722 -91 
Q 1428 -91 1123 -41 
Q 819 9 494 109 
L 494 744 
Q 775 591 1075 516 
Q 1375 441 1709 441 
Q 2250 441 2565 725 
Q 2881 1009 2881 1497 
Q 2881 1984 2565 2268 
Q 2250 2553 1709 2553 
Q 1456 2553 1204 2497 
Q 953 2441 691 2322 
L 691 4666 
z
" transform="scale(0.015625)"/>
       </defs>
       <use xlink:href="#DejaVuSans-48"/>
       <use xlink:href="#DejaVuSans-32" x="75.195312"/>
       <use xlink:href="#DejaVuSans-36" x="138.818359"/>
       <use xlink:href="#DejaVuSans-35" x="202.441406"/>
      </g>
     </g>
    </g>
    <g id="text_4">
     <!-- Codec -->
     <g transform="translate(205.849219 280.276563)scale(0.1 -0.1)">
      <defs>
       <path id="DejaVuSans-43" d="M 4122 4306 
L 4122 3641 
Q 3803 3938 3442 4084 
Q 3081 4231 2675 4231 
Q 1875 4231 1450 3742 
Q 1025 3253 1025 2328 
Q 1025 1406 1450 917 
Q 1875 428 2675 428 
Q 3081 428 3442 575 
Q 3803 722 4122 1019 
L 4122 359 
Q 3791 134 3420 21 
Q 3050 -91 2638 -91 
Q 1578 -91 968 557 
Q 359 1206 359 2328 
Q 359 3453 968 4101 
Q 1578 4750 2638 4750 
Q 3056 4750 3426 4639 
Q 3797 4528 4122 4306 
z
" transform="scale(0.015625)"/>
       <path id="DejaVuSans-6f" d="M 1959 3097 
Q 1497 3097 1228 2736 
Q 959 2375 959 1747 
Q 959 1119 1226 758 
Q 1494 397 1959 397 
Q 2419 397 2687 759 
Q 2956 1122 2956 1747 
Q 2956 2369 2687 2733 
Q 2419 3097 1959 3097 
z
M 1959 3584 
Q 2709 3584 3137 3096 
Q 3566 2609 3566 1747 
Q 3566 888 3137 398 
Q 2709 -91 1959 -91 
Q 1206 -91 779 398 
Q 353 888 353 1747 
Q 353 2609 779 3096 
Q 1206 3584 1959 3584 
z
" transform="scale(0.015625)"/>
       <path id="DejaVuSans-64" d="M 2906 2969 
L 2906 4863 
L 3481 4863 
L 3481 0 
L 2906 0 
L 2906 525 
Q 2725 213 2448 61 
Q 2172 -91 1784 -91 
Q 1150 -91 751 415 
Q 353 922 353 1747 
Q 353 2572 751 3078 
Q 1150 3584 1784 3584 
Q 2172 3584 2448 3432 
Q 2725 3281 2906 2969 
z
M 947 1747 
Q 947 1113 1208 752 
Q 1469 391 1925 391 
Q 2381 391 2643 752 
Q 2906 1113 2906 1747 
Q 2906 2381 2643 2742 
Q 2381 3103 1925 3103 
Q 1469 3103 1208 2742 
Q 947 2381 947 1747 
z
" transform="scale(0.015625)"/>
       <path id="DejaVuSans-65" d="M 3597 1894 
L 3597 1613 
L 953 1613 
Q 991 1019 1311 708 
Q 1631 397 2203 397 
Q 2534 397 2845 478 
Q 3156 559 3463 722 
L 3463 178 
Q 3153 47 2828 -22 
Q 2503 -91 2169 -91 
Q 1331 -91 842 396 
Q 353 884 353 1716 
Q 353 2575 817 3079 
Q 1281 3584 2069 3584 
Q 2775 3584 3186 3129 
Q 3597 2675 3597 1894 
z
M 3022 2063 
Q 3016 2534 2758 2815 
Q 2500 3097 2075 3097 
Q 1594 3097 1305 2825 
Q 1016 2553 972 2059 
L 3022 2063 
z
" transform="scale(0.015625)"/>
       <path id="DejaVuSans-63" d="M 3122 3366 
L 3122 2828 
Q 2878 2963 2633 3030 
Q 2388 3097 2138 3097 
Q 1578 3097 1268 2742 
Q 959 2388 959 1747 
Q 959 1106 1268 751 
Q 1578 397 2138 397 
Q 2388 397 2633 464 
Q 2878 531 3122 666 
L 3122 134 
Q 2881 22 2623 -34 
Q 2366 -91 2075 -91 
Q 1284 -91 818 406 
Q 353 903 353 1747 
Q 353 2603 823 3093 
Q 1294 3584 2113 3584 
Q 2378 3584 2631 3529 
Q 2884 3475 3122 3366 
z
" transform="scale(0.015625)"/>
      </defs>
      <use xlink:href="#DejaVuSans-43"/>
      <use xlink:href="#DejaVuSans-6f" x="69.824219"/>
      <use xlink:href="#DejaVuSans-64" x="131.005859"/>
      <use xlink:href="#DejaVuSans-65" x="194.482422"/>
      <use xlink:href="#DejaVuSans-63" x="256.005859"/>
     </g>
    </g>
   </g>
   <g id="matplotlib.axis_2">
    <g id="ytick_1">
     <g id="line2d_4">
      <defs>
       <path id="m80cf05cc8a" d="M 0 0 
L -3.5 0 
" style="stroke: #000000; stroke-width: 0.8"/>
      </defs>
      <g>
       <use xlink:href="#m80cf05cc8a" x="54" y="226.982743" style="stroke: #000000; stroke-width: 0.8"/>
      </g>
     </g>
     <g id="text_5">
      <!-- 13.4 -->
      <g transform="translate(24.734375 230.781962)scale(0.1 -0.1)">
       <defs>
        <path id="DejaVuSans-33" d="M 2597 2516 
Q 3050 2419 3304 2112 
Q 3559 1806 3559 1356 
Q 3559 666 3084 287 
Q 2609 -91 1734 -91 
Q 1441 -91 1130 -33 
Q 819 25 488 141 
L 488 750 
Q 750 597 1062 519 
Q 1375 441 1716 441 
Q 2309 441 2620 675 
Q 2931 909 2931 1356 
Q 2931 1769 2642 2001 
Q 2353 2234 1838 2234 
L 1294 2234 
L 1294 2753 
L 1863 2753 
Q 2328 2753 2575 2939 
Q 2822 3125 2822 3475 
Q 2822 3834 2567 4026 
Q 2313 4219 1838 4219 
Q 1578 4219 1281 4162 
Q 984 4106 628 3988 
L 628 4550 
Q 988 4650 1302 4700 
Q 1616 4750 1894 4750 
Q 2613 4750 3031 4423 
Q 3450 4097 3450 3541 
Q 3450 3153 3228 2886 
Q 3006 2619 2597 2516 
z
" transform="scale(0.015625)"/>
        <path id="DejaVuSans-2e" d="M 684 794 
L 1344 794 
L 1344 0 
L 684 0 
L 684 794 
z
" transform="scale(0.015625)"/>
       </defs>
       <use xlink:href="#DejaVuSans-31"/>
       <use xlink:href="#DejaVuSans-33" x="63.623047"/>
       <use xlink:href="#DejaVuSans-2e" x="127.246094"/>
       <use xlink:href="#DejaVuSans-34" x="159.033203"/>
      </g>
     </g>
    </g>
    <g id="ytick_2">
     <g id="line2d_5">
      <g>
       <use xlink:href="#m80cf05cc8a" x="54" y="198.572351" style="stroke: #000000; stroke-width: 0.8"/>
      </g>
     </g>
     <g id="text_6">
      <!-- 13.6 -->
      <g transform="translate(24.734375 202.37157)scale(0.1 -0.1)">
       <use xlink:href="#DejaVuSans-31"/>
       <use xlink:href="#DejaVuSans-33" x="63.623047"/>
       <use xlink:href="#DejaVuSans-2e" x="127.246094"/>
       <use xlink:href="#DejaVuSans-36" x="159.033203"/>
      </g>
     </g>
    </g>
    <g id="ytick_3">
     <g id="line2d_6">
      <g>
       <use xlink:href="#m80cf05cc8a" x="54" y="170.161959" style="stroke: #000000; stroke-width: 0.8"/>
      </g>
     </g>
     <g id="text_7">
      <!-- 13.8 -->
      <g transform="translate(24.734375 173.961178)scale(0.1 -0.1)">
       <defs>
        <path id="DejaVuSans-38" d="M 2034 2216 
Q 1584 2216 1326 1975 
Q 1069 1734 1069 1313 
Q 1069 891 1326 650 
Q 1584 409 2034 409 
Q 2484 409 2743 651 
Q 3003 894 3003 1313 
Q 3003 1734 2745 1975 
Q 2488 2216 2034 2216 
z
M 1403 2484 
Q 997 2584 770 2862 
Q 544 3141 544 3541 
Q 544 4100 942 4425 
Q 1341 4750 2034 4750 
Q 2731 4750 3128 4425 
Q 3525 4100 3525 3541 
Q 3525 3141 3298 2862 
Q 3072 2584 2669 2484 
Q 3125 2378 3379 2068 
Q 3634 1759 3634 1313 
Q 3634 634 3220 271 
Q 2806 -91 2034 -91 
Q 1263 -91 848 271 
Q 434 634 434 1313 
Q 434 1759 690 2068 
Q 947 2378 1403 2484 
z
M 1172 3481 
Q 1172 3119 1398 2916 
Q 1625 2713 2034 2713 
Q 2441 2713 2670 2916 
Q 2900 3119 2900 3481 
Q 2900 3844 2670 4047 
Q 2441 4250 2034 4250 
Q 1625 4250 1398 4047 
Q 1172 3844 1172 3481 
z
" transform="scale(0.015625)"/>
       </defs>
       <use xlink:href="#DejaVuSans-31"/>
       <use xlink:href="#DejaVuSans-33" x="63.623047"/>
       <use xlink:href="#DejaVuSans-2e" x="127.246094"/>
       <use xlink:href="#DejaVuSans-38" x="159.033203"/>
      </g>
     </g>
    </g>
    <g id="ytick_4">
     <g id="line2d_7">
      <g>
       <use xlink:href="#m80cf05cc8a" x="54" y="141.751567" style="stroke: #000000; stroke-width: 0.8"/>
      </g>
     </g>
     <g id="text_8">
      <!-- 14.0 -->
      <g transform="translate(24.734375 145.550786)scale(0.1 -0.1)">
       <defs>
        <path id="DejaVuSans-30" d="M 2034 4250 
Q 1547 4250 1301 3770 
Q 1056 3291 1056 2328 
Q 1056 1369 1301 889 
Q 1547 409 2034 409 
Q 2525 409 2770 889 
Q 3016 1369 3016 2328 
Q 3016 3291 2770 3770 
Q 2525 4250 2034 4250 
z
M 2034 4750 
Q 2819 4750 3233 4129 
Q 3647 3509 3647 2328 
Q 3647 1150 3233 529 
Q 2819 -91 2034 -91 
Q 1250 -91 836 529 
Q 422 1150 422 2328 
Q 422 3509 836 4129 
Q 1250 4750 2034 4750 
z
" transform="scale(0.015625)"/>
       </defs>
       <use xlink:href="#DejaVuSans-31"/>
       <use xlink:href="#DejaVuSans-34" x="63.623047"/>
       <use xlink:href="#DejaVuSans-2e" x="127.246094"/>
       <use xlink:href="#DejaVuSans-30" x="159.033203"/>
      </g>
     </g>
    </g>
    <g id="ytick_5">
     <g id="line2d_8">
      <g>
       <use xlink:href="#m80cf05cc8a" x="54" y="113.341176" style="stroke: #000000; stroke-width: 0.8"/>
      </g>
     </g>
     <g id="text_9">
      <!-- 14.2 -->
      <g transform="translate(24.734375 117.140394)scale(0.1 -0.1)">
       <use xlink:href="#DejaVuSans-31"/>
       <use xlink:href="#DejaVuSans-34" x="63.623047"/>
       <use xlink:href="#DejaVuSans-2e" x="127.246094"/>
       <use xlink:href="#DejaVuSans-32" x="159.033203"/>
      </g>
     </g>
    </g>
    <g id="ytick_6">
     <g id="line2d_9">
      <g>
       <use xlink:href="#m80cf05cc8a" x="54" y="84.930784" style="stroke: #000000; stroke-width: 0.8"/>
      </g>
     </g>
     <g id="text_10">
      <!-- 14.4 -->
      <g transform="translate(24.734375 88.730003)scale(0.1 -0.1)">
       <use xlink:href="#DejaVuSans-31"/>
       <use xlink:href="#DejaVuSans-34" x="63.623047"/>
       <use xlink:href="#DejaVuSans-2e" x="127.246094"/>
       <use xlink:href="#DejaVuSans-34" x="159.033203"/>
      </g>
     </g>
    </g>
    <g id="ytick_7">
     <g id="line2d_10">
      <g>
       <use xlink:href="#m80cf05cc8a" x="54" y="56.520392" style="stroke: #000000; stroke-width: 0.8"/>
      </g>
     </g>
     <g id="text_11">
      <!-- 14.6 -->
      <g transform="translate(24.734375 60.319611)scale(0.1 -0.1)">
       <use xlink:href="#DejaVuSans-31"/>
       <use xlink:href="#DejaVuSans-34" x="63.623047"/>
       <use xlink:href="#DejaVuSans-2e" x="127.246094"/>
       <use xlink:href="#DejaVuSans-36" x="159.033203"/>
      </g>
     </g>
    </g>
    <g id="text_12">
     <!-- Power (W) -->
     <g transform="translate(18.654687 168.828438)rotate(-90)scale(0.1 -0.1)">
      <defs>
       <path id="DejaVuSans-50" d="M 1259 4147 
L 1259 2394 
L 2053 2394 
Q 2494 2394 2734 2622 
Q 2975 2850 2975 3272 
Q 2975 3691 2734 3919 
Q 2494 4147 2053 4147 
L 1259 4147 
z
M 628 4666 
L 2053 4666 
Q 2838 4666 3239 4311 
Q 3641 3956 3641 3272 
Q 3641 2581 3239 2228 
Q 2838 1875 2053 1875 
L 1259 1875 
L 1259 0 
L 628 0 
L 628 4666 
z
" transform="scale(0.015625)"/>
       <path id="DejaVuSans-77" d="M 269 3500 
L 844 3500 
L 1563 769 
L 2278 3500 
L 2956 3500 
L 3675 769 
L 4391 3500 
L 4966 3500 
L 4050 0 
L 3372 0 
L 2619 2869 
L 1863 0 
L 1184 0 
L 269 3500 
z
" transform="scale(0.015625)"/>
       <path id="DejaVuSans-72" d="M 2631 2963 
Q 2534 3019 2420 3045 
Q 2306 3072 2169 3072 
Q 1681 3072 1420 2755 
Q 1159 2438 1159 1844 
L 1159 0 
L 581 0 
L 581 3500 
L 1159 3500 
L 1159 2956 
Q 1341 3275 1631 3429 
Q 1922 3584 2338 3584 
Q 2397 3584 2469 3576 
Q 2541 3569 2628 3553 
L 2631 2963 
z
" transform="scale(0.015625)"/>
       <path id="DejaVuSans-20" transform="scale(0.015625)"/>
       <path id="DejaVuSans-28" d="M 1984 4856 
Q 1566 4138 1362 3434 
Q 1159 2731 1159 2009 
Q 1159 1288 1364 580 
Q 1569 -128 1984 -844 
L 1484 -844 
Q 1016 -109 783 600 
Q 550 1309 550 2009 
Q 550 2706 781 3412 
Q 1013 4119 1484 4856 
L 1984 4856 
z
" transform="scale(0.015625)"/>
       <path id="DejaVuSans-57" d="M 213 4666 
L 850 4666 
L 1831 722 
L 2809 4666 
L 3519 4666 
L 4500 722 
L 5478 4666 
L 6119 4666 
L 4947 0 
L 4153 0 
L 3169 4050 
L 2175 0 
L 1381 0 
L 213 4666 
z
" transform="scale(0.015625)"/>
       <path id="DejaVuSans-29" d="M 513 4856 
L 1013 4856 
Q 1481 4119 1714 3412 
Q 1947 2706 1947 2009 
Q 1947 1309 1714 600 
Q 1481 -109 1013 -844 
L 513 -844 
Q 928 -128 1133 580 
Q 1338 1288 1338 2009 
Q 1338 2731 1133 3434 
Q 928 4138 513 4856 
z
" transform="scale(0.015625)"/>
      </defs>
      <use xlink:href="#DejaVuSans-50"/>
      <use xlink:href="#DejaVuSans-6f" x="56.677734"/>
      <use xlink:href="#DejaVuSans-77" x="117.859375"/>
      <use xlink:href="#DejaVuSans-65" x="199.646484"/>
      <use xlink:href="#DejaVuSans-72" x="261.169922"/>
      <use xlink:href="#DejaVuSans-20" x="302.283203"/>
      <use xlink:href="#DejaVuSans-28" x="334.070312"/>
      <use xlink:href="#DejaVuSans-57" x="373.083984"/>
      <use xlink:href="#DejaVuSans-29" x="471.960938"/>
     </g>
    </g>
   </g>
   <g id="line2d_11">
    <path d="M 110.560214 157.763572 
L 110.560214 95.556346 
" clip-path="url(#p046f52c2b7)" style="fill: none; stroke: #3f3f3f; stroke-width: 1.875; stroke-linecap: square"/>
   </g>
   <g id="line2d_12">
    <path d="M 110.560214 142.749121 
L 110.560214 118.545125 
" clip-path="url(#p046f52c2b7)" style="fill: none; stroke: #3f3f3f; stroke-width: 5.625; stroke-linecap: square"/>
   </g>
   <g id="line2d_13">
    <path d="M 110.560214 131.787798 
" clip-path="url(#p046f52c2b7)" style="fill: none; stroke: #3f3f3f; stroke-width: 1.5; stroke-linecap: square"/>
    <defs>
     <path id="m1bef5bb7e9" d="M 2.34375 0 
L -2.34375 -0 
" style="stroke: #ffffff; stroke-width: 1.125"/>
    </defs>
    <g clip-path="url(#p046f52c2b7)">
     <use xlink:href="#m1bef5bb7e9" x="110.560214" y="131.787798" style="fill: #ffffff; stroke: #ffffff; stroke-width: 1.125"/>
    </g>
   </g>
   <g id="line2d_14">
    <path d="M 221.489105 210.392199 
L 221.489105 143.111911 
" clip-path="url(#p046f52c2b7)" style="fill: none; stroke: #3f3f3f; stroke-width: 1.875; stroke-linecap: square"/>
   </g>
   <g id="line2d_15">
    <path d="M 221.489105 191.053014 
L 221.489105 169.97663 
" clip-path="url(#p046f52c2b7)" style="fill: none; stroke: #3f3f3f; stroke-width: 5.625; stroke-linecap: square"/>
   </g>
   <g id="line2d_16">
    <path d="M 221.489105 181.250558 
" clip-path="url(#p046f52c2b7)" style="fill: none; stroke: #3f3f3f; stroke-width: 1.5; stroke-linecap: square"/>
    <g clip-path="url(#p046f52c2b7)">
     <use xlink:href="#m1bef5bb7e9" x="221.489105" y="181.250558" style="fill: #ffffff; stroke: #ffffff; stroke-width: 1.125"/>
    </g>
   </g>
   <g id="line2d_17">
    <path d="M 332.417997 202.569943 
L 332.417997 138.203602 
" clip-path="url(#p046f52c2b7)" style="fill: none; stroke: #3f3f3f; stroke-width: 1.875; stroke-linecap: square"/>
   </g>
   <g id="line2d_18">
    <path d="M 332.417997 172.288179 
L 332.417997 151.655951 
" clip-path="url(#p046f52c2b7)" style="fill: none; stroke: #3f3f3f; stroke-width: 5.625; stroke-linecap: square"/>
   </g>
   <g id="line2d_19">
    <path d="M 332.417997 160.85078 
" clip-path="url(#p046f52c2b7)" style="fill: none; stroke: #3f3f3f; stroke-width: 1.5; stroke-linecap: square"/>
    <g clip-path="url(#p046f52c2b7)">
     <use xlink:href="#m1bef5bb7e9" x="332.417997" y="160.85078" style="fill: #ffffff; stroke: #ffffff; stroke-width: 1.125"/>
    </g>
   </g>
   <g id="patch_3">
    <path d="M 54 252 
L 54 34.56 
" style="fill: none; stroke: #000000; stroke-width: 0.8; stroke-linejoin: miter; stroke-linecap: square"/>
   </g>
   <g id="patch_4">
    <path d="M 388.8 252 
L 388.8 34.56 
" style="fill: none; stroke: #000000; stroke-width: 0.8; stroke-linejoin: miter; stroke-linecap: square"/>
   </g>
   <g id="patch_5">
    <path d="M 54 252 
L 388.8 252 
" style="fill: none; stroke: #000000; stroke-width: 0.8; stroke-linejoin: miter; stroke-linecap: square"/>
   </g>
   <g id="patch_6">
    <path d="M 54 34.56 
L 388.8 34.56 
" style="fill: none; stroke: #000000; stroke-width: 0.8; stroke-linejoin: miter; stroke-linecap: square"/>
   </g>
   <g id="text_13">
    <!-- Power consumption without hardware acceleration -->
    <g transform="translate(69.015 28.56)scale(0.12 -0.12)">
     <defs>
      <path id="DejaVuSans-6e" d="M 3513 2113 
L 3513 0 
L 2938 0 
L 2938 2094 
Q 2938 2591 2744 2837 
Q 2550 3084 2163 3084 
Q 1697 3084 1428 2787 
Q 1159 2491 1159 1978 
L 1159 0 
L 581 0 
L 581 3500 
L 1159 3500 
L 1159 2956 
Q 1366 3272 1645 3428 
Q 1925 3584 2291 3584 
Q 2894 3584 3203 3211 
Q 3513 2838 3513 2113 
z
" transform="scale(0.015625)"/>
      <path id="DejaVuSans-73" d="M 2834 3397 
L 2834 2853 
Q 2591 2978 2328 3040 
Q 2066 3103 1784 3103 
Q 1356 3103 1142 2972 
Q 928 2841 928 2578 
Q 928 2378 1081 2264 
Q 1234 2150 1697 2047 
L 1894 2003 
Q 2506 1872 2764 1633 
Q 3022 1394 3022 966 
Q 3022 478 2636 193 
Q 2250 -91 1575 -91 
Q 1294 -91 989 -36 
Q 684 19 347 128 
L 347 722 
Q 666 556 975 473 
Q 1284 391 1588 391 
Q 1994 391 2212 530 
Q 2431 669 2431 922 
Q 2431 1156 2273 1281 
Q 2116 1406 1581 1522 
L 1381 1569 
Q 847 1681 609 1914 
Q 372 2147 372 2553 
Q 372 3047 722 3315 
Q 1072 3584 1716 3584 
Q 2034 3584 2315 3537 
Q 2597 3491 2834 3397 
z
" transform="scale(0.015625)"/>
      <path id="DejaVuSans-75" d="M 544 1381 
L 544 3500 
L 1119 3500 
L 1119 1403 
Q 1119 906 1312 657 
Q 1506 409 1894 409 
Q 2359 409 2629 706 
Q 2900 1003 2900 1516 
L 2900 3500 
L 3475 3500 
L 3475 0 
L 2900 0 
L 2900 538 
Q 2691 219 2414 64 
Q 2138 -91 1772 -91 
Q 1169 -91 856 284 
Q 544 659 544 1381 
z
M 1991 3584 
L 1991 3584 
z
" transform="scale(0.015625)"/>
      <path id="DejaVuSans-6d" d="M 3328 2828 
Q 3544 3216 3844 3400 
Q 4144 3584 4550 3584 
Q 5097 3584 5394 3201 
Q 5691 2819 5691 2113 
L 5691 0 
L 5113 0 
L 5113 2094 
Q 5113 2597 4934 2840 
Q 4756 3084 4391 3084 
Q 3944 3084 3684 2787 
Q 3425 2491 3425 1978 
L 3425 0 
L 2847 0 
L 2847 2094 
Q 2847 2600 2669 2842 
Q 2491 3084 2119 3084 
Q 1678 3084 1418 2786 
Q 1159 2488 1159 1978 
L 1159 0 
L 581 0 
L 581 3500 
L 1159 3500 
L 1159 2956 
Q 1356 3278 1631 3431 
Q 1906 3584 2284 3584 
Q 2666 3584 2933 3390 
Q 3200 3197 3328 2828 
z
" transform="scale(0.015625)"/>
      <path id="DejaVuSans-70" d="M 1159 525 
L 1159 -1331 
L 581 -1331 
L 581 3500 
L 1159 3500 
L 1159 2969 
Q 1341 3281 1617 3432 
Q 1894 3584 2278 3584 
Q 2916 3584 3314 3078 
Q 3713 2572 3713 1747 
Q 3713 922 3314 415 
Q 2916 -91 2278 -91 
Q 1894 -91 1617 61 
Q 1341 213 1159 525 
z
M 3116 1747 
Q 3116 2381 2855 2742 
Q 2594 3103 2138 3103 
Q 1681 3103 1420 2742 
Q 1159 2381 1159 1747 
Q 1159 1113 1420 752 
Q 1681 391 2138 391 
Q 2594 391 2855 752 
Q 3116 1113 3116 1747 
z
" transform="scale(0.015625)"/>
      <path id="DejaVuSans-74" d="M 1172 4494 
L 1172 3500 
L 2356 3500 
L 2356 3053 
L 1172 3053 
L 1172 1153 
Q 1172 725 1289 603 
Q 1406 481 1766 481 
L 2356 481 
L 2356 0 
L 1766 0 
Q 1100 0 847 248 
Q 594 497 594 1153 
L 594 3053 
L 172 3053 
L 172 3500 
L 594 3500 
L 594 4494 
L 1172 4494 
z
" transform="scale(0.015625)"/>
      <path id="DejaVuSans-69" d="M 603 3500 
L 1178 3500 
L 1178 0 
L 603 0 
L 603 3500 
z
M 603 4863 
L 1178 4863 
L 1178 4134 
L 603 4134 
L 603 4863 
z
" transform="scale(0.015625)"/>
      <path id="DejaVuSans-68" d="M 3513 2113 
L 3513 0 
L 2938 0 
L 2938 2094 
Q 2938 2591 2744 2837 
Q 2550 3084 2163 3084 
Q 1697 3084 1428 2787 
Q 1159 2491 1159 1978 
L 1159 0 
L 581 0 
L 581 4863 
L 1159 4863 
L 1159 2956 
Q 1366 3272 1645 3428 
Q 1925 3584 2291 3584 
Q 2894 3584 3203 3211 
Q 3513 2838 3513 2113 
z
" transform="scale(0.015625)"/>
      <path id="DejaVuSans-61" d="M 2194 1759 
Q 1497 1759 1228 1600 
Q 959 1441 959 1056 
Q 959 750 1161 570 
Q 1363 391 1709 391 
Q 2188 391 2477 730 
Q 2766 1069 2766 1631 
L 2766 1759 
L 2194 1759 
z
M 3341 1997 
L 3341 0 
L 2766 0 
L 2766 531 
Q 2569 213 2275 61 
Q 1981 -91 1556 -91 
Q 1019 -91 701 211 
Q 384 513 384 1019 
Q 384 1609 779 1909 
Q 1175 2209 1959 2209 
L 2766 2209 
L 2766 2266 
Q 2766 2663 2505 2880 
Q 2244 3097 1772 3097 
Q 1472 3097 1187 3025 
Q 903 2953 641 2809 
L 641 3341 
Q 956 3463 1253 3523 
Q 1550 3584 1831 3584 
Q 2591 3584 2966 3190 
Q 3341 2797 3341 1997 
z
" transform="scale(0.015625)"/>
      <path id="DejaVuSans-6c" d="M 603 4863 
L 1178 4863 
L 1178 0 
L 603 0 
L 603 4863 
z
" transform="scale(0.015625)"/>
     </defs>
     <use xlink:href="#DejaVuSans-50"/>
     <use xlink:href="#DejaVuSans-6f" x="56.677734"/>
     <use xlink:href="#DejaVuSans-77" x="117.859375"/>
     <use xlink:href="#DejaVuSans-65" x="199.646484"/>
     <use xlink:href="#DejaVuSans-72" x="261.169922"/>
     <use xlink:href="#DejaVuSans-20" x="302.283203"/>
     <use xlink:href="#DejaVuSans-63" x="334.070312"/>
     <use xlink:href="#DejaVuSans-6f" x="389.050781"/>
     <use xlink:href="#DejaVuSans-6e" x="450.232422"/>
     <use xlink:href="#DejaVuSans-73" x="513.611328"/>
     <use xlink:href="#DejaVuSans-75" x="565.710938"/>
     <use xlink:href="#DejaVuSans-6d" x="629.089844"/>
     <use xlink:href="#DejaVuSans-70" x="726.501953"/>
     <use xlink:href="#DejaVuSans-74" x="789.978516"/>
     <use xlink:href="#DejaVuSans-69" x="829.1875"/>
     <use xlink:href="#DejaVuSans-6f" x="856.970703"/>
     <use xlink:href="#DejaVuSans-6e" x="918.152344"/>
     <use xlink:href="#DejaVuSans-20" x="981.53125"/>
     <use xlink:href="#DejaVuSans-77" x="1013.318359"/>
     <use xlink:href="#DejaVuSans-69" x="1095.105469"/>
     <use xlink:href="#DejaVuSans-74" x="1122.888672"/>
     <use xlink:href="#DejaVuSans-68" x="1162.097656"/>
     <use xlink:href="#DejaVuSans-6f" x="1225.476562"/>
     <use xlink:href="#DejaVuSans-75" x="1286.658203"/>
     <use xlink:href="#DejaVuSans-74" x="1350.037109"/>
     <use xlink:href="#DejaVuSans-20" x="1389.246094"/>
     <use xlink:href="#DejaVuSans-68" x="1421.033203"/>
     <use xlink:href="#DejaVuSans-61" x="1484.412109"/>
     <use xlink:href="#DejaVuSans-72" x="1545.691406"/>
     <use xlink:href="#DejaVuSans-64" x="1585.054688"/>
     <use xlink:href="#DejaVuSans-77" x="1648.53125"/>
     <use xlink:href="#DejaVuSans-61" x="1730.318359"/>
     <use xlink:href="#DejaVuSans-72" x="1791.597656"/>
     <use xlink:href="#DejaVuSans-65" x="1830.460938"/>
     <use xlink:href="#DejaVuSans-20" x="1891.984375"/>
     <use xlink:href="#DejaVuSans-61" x="1923.771484"/>
     <use xlink:href="#DejaVuSans-63" x="1985.050781"/>
     <use xlink:href="#DejaVuSans-63" x="2040.03125"/>
     <use xlink:href="#DejaVuSans-65" x="2095.011719"/>
     <use xlink:href="#DejaVuSans-6c" x="2156.535156"/>
     <use xlink:href="#DejaVuSans-65" x="2184.318359"/>
     <use xlink:href="#DejaVuSans-72" x="2245.841797"/>
     <use xlink:href="#DejaVuSans-61" x="2286.955078"/>
     <use xlink:href="#DejaVuSans-74" x="2348.234375"/>
     <use xlink:href="#DejaVuSans-69" x="2387.443359"/>
     <use xlink:href="#DejaVuSans-6f" x="2415.226562"/>
     <use xlink:href="#DejaVuSans-6e" x="2476.408203"/>
    </g>
   </g>
  </g>
 </g>
 <defs>
  <clipPath id="p046f52c2b7">
   <rect x="54" y="34.56" width="334.8" height="217.44"/>
  </clipPath>
 </defs>
</svg>
