<?xml version="1.0" encoding="utf-8" standalone="no"?>
<!DOCTYPE svg PUBLIC "-//W3C//DTD SVG 1.1//EN"
  "http://www.w3.org/Graphics/SVG/1.1/DTD/svg11.dtd">
<svg xmlns:xlink="http://www.w3.org/1999/xlink" width="460.8pt" height="345.6pt" viewBox="0 0 460.8 345.6" xmlns="http://www.w3.org/2000/svg" version="1.1">
 <metadata>
  <rdf:RDF xmlns:dc="http://purl.org/dc/elements/1.1/" xmlns:cc="http://creativecommons.org/ns#" xmlns:rdf="http://www.w3.org/1999/02/22-rdf-syntax-ns#">
   <cc:Work>
    <dc:type rdf:resource="http://purl.org/dc/dcmitype/StillImage"/>
    <dc:date>2024-03-01T14:37:10.228422</dc:date>
    <dc:format>image/svg+xml</dc:format>
    <dc:creator>
     <cc:Agent>
      <dc:title>Matplotlib v3.8.0, https://matplotlib.org/</dc:title>
     </cc:Agent>
    </dc:creator>
   </cc:Work>
  </rdf:RDF>
 </metadata>
 <defs>
  <style type="text/css">*{stroke-linejoin: round; stroke-linecap: butt}</style>
 </defs>
 <g id="figure_1">
  <g id="patch_1">
   <path d="M 0 345.6 
L 460.8 345.6 
L 460.8 0 
L 0 0 
z
" style="fill: #ffffff"/>
  </g>
  <g id="axes_1">
   <g id="patch_2">
    <path d="M 57.6 307.584 
L 414.72 307.584 
L 414.72 41.472 
L 57.6 41.472 
z
" style="fill: #ffffff"/>
   </g>
   <g id="PolyCollection_1">
    <defs>
     <path id="m764944e6c6" d="M 118.772433 -128.791027 
L 117.089356 -128.791027 
L 116.82649 -130.273248 
L 116.498752 -131.755469 
L 116.095448 -133.23769 
L 115.605517 -134.719912 
L 115.017859 -136.202133 
L 114.32172 -137.684354 
L 113.507113 -139.166575 
L 112.565273 -140.648797 
L 111.48911 -142.131018 
L 110.27365 -143.613239 
L 108.916453 -145.09546 
L 107.417979 -146.577682 
L 105.781903 -148.059903 
L 104.015355 -149.542124 
L 102.129083 -151.024345 
L 100.137518 -152.506566 
L 98.058739 -153.988788 
L 95.914296 -155.471009 
L 93.728906 -156.95323 
L 91.529974 -158.435451 
L 89.346965 -159.917673 
L 87.210591 -161.399894 
L 85.151874 -162.882115 
L 83.201081 -164.364336 
L 81.38662 -165.846558 
L 79.733944 -167.328779 
L 78.264552 -168.811 
L 76.995168 -170.293221 
L 75.93716 -171.775443 
L 75.096265 -173.257664 
L 74.472631 -174.739885 
L 74.061192 -176.222106 
L 73.852321 -177.704328 
L 73.832727 -179.186549 
L 73.986498 -180.66877 
L 74.296218 -182.150991 
L 74.74407 -183.633213 
L 75.312839 -185.115434 
L 75.98677 -186.597655 
L 76.75222 -188.079876 
L 77.598085 -189.562098 
L 78.516 -191.044319 
L 79.500294 -192.52654 
L 80.547744 -194.008761 
L 81.657124 -195.490983 
L 82.828606 -196.973204 
L 84.063028 -198.455425 
L 85.3611 -199.937646 
L 86.722598 -201.419868 
L 88.145597 -202.902089 
L 89.62583 -204.38431 
L 91.156214 -205.866531 
L 92.726608 -207.348753 
L 94.323837 -208.830974 
L 95.931984 -210.313195 
L 97.53294 -211.795416 
L 99.107178 -213.277638 
L 100.634665 -214.759859 
L 102.09585 -216.24208 
L 103.472634 -217.724301 
L 104.749232 -219.206523 
L 105.912869 -220.688744 
L 106.954259 -222.170965 
L 107.867847 -223.653186 
L 108.651832 -225.135408 
L 109.307985 -226.617629 
L 109.841331 -228.09985 
L 110.259736 -229.582071 
L 110.573445 -231.064293 
L 110.794633 -232.546514 
L 110.93697 -234.028735 
L 111.015221 -235.510956 
L 111.044868 -236.993178 
L 111.041742 -238.475399 
L 111.02163 -239.95762 
L 110.999856 -241.439841 
L 110.990828 -242.922063 
L 111.007544 -244.404284 
L 111.061112 -245.886505 
L 111.160289 -247.368726 
L 111.311105 -248.850947 
L 111.516615 -250.333169 
L 111.776801 -251.81539 
L 112.088661 -253.297611 
L 112.446488 -254.779832 
L 112.842311 -256.262054 
L 113.266471 -257.744275 
L 113.708291 -259.226496 
L 114.156765 -260.708717 
L 114.601221 -262.190939 
L 115.031905 -263.67316 
L 115.440443 -265.155381 
L 115.820154 -266.637602 
L 116.166216 -268.119824 
L 116.475678 -269.602045 
L 116.747348 -271.084266 
L 116.981584 -272.566487 
L 117.180013 -274.048709 
L 117.345224 -275.53093 
L 118.516566 -275.53093 
L 118.516566 -275.53093 
L 118.681777 -274.048709 
L 118.880206 -272.566487 
L 119.114442 -271.084266 
L 119.386112 -269.602045 
L 119.695574 -268.119824 
L 120.041636 -266.637602 
L 120.421347 -265.155381 
L 120.829884 -263.67316 
L 121.260569 -262.190939 
L 121.705025 -260.708717 
L 122.153499 -259.226496 
L 122.595319 -257.744275 
L 123.019479 -256.262054 
L 123.415301 -254.779832 
L 123.773129 -253.297611 
L 124.084989 -251.81539 
L 124.345175 -250.333169 
L 124.550685 -248.850947 
L 124.701501 -247.368726 
L 124.800678 -245.886505 
L 124.854246 -244.404284 
L 124.870962 -242.922063 
L 124.861934 -241.439841 
L 124.84016 -239.95762 
L 124.820048 -238.475399 
L 124.816922 -236.993178 
L 124.846569 -235.510956 
L 124.92482 -234.028735 
L 125.067157 -232.546514 
L 125.288345 -231.064293 
L 125.602054 -229.582071 
L 126.020459 -228.09985 
L 126.553805 -226.617629 
L 127.209958 -225.135408 
L 127.993943 -223.653186 
L 128.907531 -222.170965 
L 129.948921 -220.688744 
L 131.112558 -219.206523 
L 132.389156 -217.724301 
L 133.76594 -216.24208 
L 135.227125 -214.759859 
L 136.754612 -213.277638 
L 138.32885 -211.795416 
L 139.929806 -210.313195 
L 141.537953 -208.830974 
L 143.135182 -207.348753 
L 144.705576 -205.866531 
L 146.23596 -204.38431 
L 147.716193 -202.902089 
L 149.139192 -201.419868 
L 150.50069 -199.937646 
L 151.798762 -198.455425 
L 153.033184 -196.973204 
L 154.204665 -195.490983 
L 155.314046 -194.008761 
L 156.361496 -192.52654 
L 157.34579 -191.044319 
L 158.263705 -189.562098 
L 159.10957 -188.079876 
L 159.87502 -186.597655 
L 160.548951 -185.115434 
L 161.11772 -183.633213 
L 161.565572 -182.150991 
L 161.875292 -180.66877 
L 162.029063 -179.186549 
L 162.009469 -177.704328 
L 161.800598 -176.222106 
L 161.389159 -174.739885 
L 160.765525 -173.257664 
L 159.92463 -171.775443 
L 158.866622 -170.293221 
L 157.597238 -168.811 
L 156.127846 -167.328779 
L 154.47517 -165.846558 
L 152.660709 -164.364336 
L 150.709916 -162.882115 
L 148.651199 -161.399894 
L 146.514825 -159.917673 
L 144.331815 -158.435451 
L 142.132884 -156.95323 
L 139.947493 -155.471009 
L 137.803051 -153.988788 
L 135.724271 -152.506566 
L 133.732707 -151.024345 
L 131.846435 -149.542124 
L 130.079887 -148.059903 
L 128.443811 -146.577682 
L 126.945337 -145.09546 
L 125.58814 -143.613239 
L 124.37268 -142.131018 
L 123.296517 -140.648797 
L 122.354677 -139.166575 
L 121.54007 -137.684354 
L 120.84393 -136.202133 
L 120.256273 -134.719912 
L 119.766342 -133.23769 
L 119.363038 -131.755469 
L 119.035299 -130.273248 
L 118.772433 -128.791027 
z
" style="stroke: #3f3f3f; stroke-width: 1.25"/>
    </defs>
    <g clip-path="url(#p1ff0bc22dd)">
     <use xlink:href="#m764944e6c6" x="0" y="345.6" style="fill: #3274a1; stroke: #3f3f3f; stroke-width: 1.25"/>
    </g>
   </g>
   <g id="PolyCollection_2">
    <defs>
     <path id="m646b618cbd" d="M 236.725752 -50.112 
L 235.784339 -50.112 
L 235.647772 -51.564355 
L 235.483416 -53.016711 
L 235.289136 -54.469066 
L 235.063533 -55.921421 
L 234.806102 -57.373776 
L 234.517331 -58.826132 
L 234.198718 -60.278487 
L 233.852681 -61.730842 
L 233.482372 -63.183198 
L 233.091396 -64.635553 
L 232.683473 -66.087908 
L 232.262068 -67.540263 
L 231.830043 -68.992619 
L 231.389368 -70.444974 
L 230.940915 -71.897329 
L 230.484366 -73.349685 
L 230.018214 -74.80204 
L 229.539832 -76.254395 
L 229.045575 -77.70675 
L 228.530866 -79.159106 
L 227.990216 -80.611461 
L 227.417162 -82.063816 
L 226.804137 -83.516172 
L 226.142288 -84.968527 
L 225.421332 -86.420882 
L 224.629522 -87.873237 
L 223.753818 -89.325593 
L 222.780342 -90.777948 
L 221.695147 -92.230303 
L 220.485294 -93.682659 
L 219.140174 -95.135014 
L 217.652954 -96.587369 
L 216.021987 -98.039725 
L 214.252 -99.49208 
L 212.35491 -100.944435 
L 210.350098 -102.39679 
L 208.264083 -103.849146 
L 206.129564 -105.301501 
L 203.983893 -106.753856 
L 201.867106 -108.206212 
L 199.8197 -109.658567 
L 197.880353 -111.110922 
L 196.083829 -112.563277 
L 194.459259 -114.015633 
L 193.028968 -115.467988 
L 191.807954 -116.920343 
L 190.804055 -118.372699 
L 190.01877 -119.825054 
L 189.448615 -121.277409 
L 189.086856 -122.729764 
L 188.925385 -124.18212 
L 188.956511 -125.634475 
L 189.174404 -127.08683 
L 189.576015 -128.539186 
L 190.161295 -129.991541 
L 190.932682 -131.443896 
L 191.89387 -132.896251 
L 193.04803 -134.348607 
L 194.395697 -135.800962 
L 195.93263 -137.253317 
L 197.647969 -138.705673 
L 199.522981 -140.158028 
L 201.530626 -141.610383 
L 203.63609 -143.062738 
L 205.798257 -144.515094 
L 207.972027 -145.967449 
L 210.111204 -147.419804 
L 212.171668 -148.87216 
L 214.114448 -150.324515 
L 215.908373 -151.77687 
L 217.532009 -153.229225 
L 218.974697 -154.681581 
L 220.236628 -156.133936 
L 221.327974 -157.586291 
L 222.267243 -159.038647 
L 223.079055 -160.491002 
L 223.791606 -161.943357 
L 224.434092 -163.395712 
L 225.034326 -164.848068 
L 225.616744 -166.300423 
L 226.200943 -167.752778 
L 226.800802 -169.205134 
L 227.424197 -170.657489 
L 228.073244 -172.109844 
L 228.744989 -173.562199 
L 229.432407 -175.014555 
L 230.125591 -176.46691 
L 230.812995 -177.919265 
L 231.482625 -179.371621 
L 232.123078 -180.823976 
L 232.724375 -182.276331 
L 233.278549 -183.728687 
L 233.779972 -185.181042 
L 234.225463 -186.633397 
L 234.614169 -188.085752 
L 234.947313 -189.538108 
L 235.227816 -190.990463 
L 235.459877 -192.442818 
L 235.648537 -193.895174 
L 236.861554 -193.895174 
L 236.861554 -193.895174 
L 237.050214 -192.442818 
L 237.282275 -190.990463 
L 237.562778 -189.538108 
L 237.895922 -188.085752 
L 238.284629 -186.633397 
L 238.730119 -185.181042 
L 239.231543 -183.728687 
L 239.785716 -182.276331 
L 240.387014 -180.823976 
L 241.027467 -179.371621 
L 241.697097 -177.919265 
L 242.384501 -176.46691 
L 243.077685 -175.014555 
L 243.765103 -173.562199 
L 244.436848 -172.109844 
L 245.085895 -170.657489 
L 245.70929 -169.205134 
L 246.309149 -167.752778 
L 246.893348 -166.300423 
L 247.475765 -164.848068 
L 248.075999 -163.395712 
L 248.718486 -161.943357 
L 249.431037 -160.491002 
L 250.242849 -159.038647 
L 251.182118 -157.586291 
L 252.273464 -156.133936 
L 253.535394 -154.681581 
L 254.978083 -153.229225 
L 256.601718 -151.77687 
L 258.395643 -150.324515 
L 260.338424 -148.87216 
L 262.398888 -147.419804 
L 264.538065 -145.967449 
L 266.711834 -144.515094 
L 268.874002 -143.062738 
L 270.979466 -141.610383 
L 272.987111 -140.158028 
L 274.862122 -138.705673 
L 276.577462 -137.253317 
L 278.114395 -135.800962 
L 279.462061 -134.348607 
L 280.616221 -132.896251 
L 281.57741 -131.443896 
L 282.348796 -129.991541 
L 282.934077 -128.539186 
L 283.335687 -127.08683 
L 283.553581 -125.634475 
L 283.584706 -124.18212 
L 283.423236 -122.729764 
L 283.061477 -121.277409 
L 282.491322 -119.825054 
L 281.706036 -118.372699 
L 280.702138 -116.920343 
L 279.481124 -115.467988 
L 278.050833 -114.015633 
L 276.426263 -112.563277 
L 274.629739 -111.110922 
L 272.690392 -109.658567 
L 270.642985 -108.206212 
L 268.526199 -106.753856 
L 266.380527 -105.301501 
L 264.246008 -103.849146 
L 262.159994 -102.39679 
L 260.155182 -100.944435 
L 258.258091 -99.49208 
L 256.488105 -98.039725 
L 254.857137 -96.587369 
L 253.369918 -95.135014 
L 252.024798 -93.682659 
L 250.814944 -92.230303 
L 249.729749 -90.777948 
L 248.756274 -89.325593 
L 247.88057 -87.873237 
L 247.088759 -86.420882 
L 246.367803 -84.968527 
L 245.705954 -83.516172 
L 245.092929 -82.063816 
L 244.519876 -80.611461 
L 243.979225 -79.159106 
L 243.464516 -77.70675 
L 242.97026 -76.254395 
L 242.491877 -74.80204 
L 242.025725 -73.349685 
L 241.569177 -71.897329 
L 241.120724 -70.444974 
L 240.680049 -68.992619 
L 240.248024 -67.540263 
L 239.826619 -66.087908 
L 239.418696 -64.635553 
L 239.02772 -63.183198 
L 238.657411 -61.730842 
L 238.311374 -60.278487 
L 237.992761 -58.826132 
L 237.70399 -57.373776 
L 237.446559 -55.921421 
L 237.220956 -54.469066 
L 237.026676 -53.016711 
L 236.862319 -51.564355 
L 236.725752 -50.112 
z
" style="stroke: #3f3f3f; stroke-width: 1.25"/>
    </defs>
    <g clip-path="url(#p1ff0bc22dd)">
     <use xlink:href="#m646b618cbd" x="0" y="345.6" style="fill: #3274a1; stroke: #3f3f3f; stroke-width: 1.25"/>
    </g>
   </g>
   <g id="PolyCollection_3">
    <defs>
     <path id="m50a19ca9d0" d="M 355.051429 -69.179754 
L 354.106964 -69.179754 
L 353.924917 -71.430787 
L 353.690924 -73.68182 
L 353.396988 -75.932852 
L 353.035984 -78.183885 
L 352.602263 -80.434918 
L 352.092165 -82.685951 
L 351.504369 -84.936983 
L 350.839974 -87.188016 
L 350.102284 -89.439049 
L 349.296278 -91.690082 
L 348.427823 -93.941115 
L 347.50271 -96.192147 
L 346.525667 -98.44318 
L 345.499453 -100.694213 
L 344.42419 -102.945246 
L 343.297008 -105.196279 
L 342.112042 -107.447311 
L 340.860805 -109.698344 
L 339.532877 -111.949377 
L 338.116875 -114.20041 
L 336.601651 -116.451443 
L 334.977662 -118.702475 
L 333.238492 -120.953508 
L 331.382479 -123.204541 
L 329.414387 -125.455574 
L 327.34702 -127.706606 
L 325.202628 -129.957639 
L 323.013894 -132.208672 
L 320.824274 -134.459705 
L 318.687477 -136.710738 
L 316.665906 -138.96177 
L 314.828018 -141.212803 
L 313.244663 -143.463836 
L 311.984669 -145.714869 
L 311.110016 -147.965902 
L 310.671121 -150.216934 
L 310.702718 -152.467967 
L 311.220849 -154.719 
L 312.221302 -156.970033 
L 313.679703 -159.221066 
L 315.553227 -161.472098 
L 317.783701 -163.723131 
L 320.301706 -165.974164 
L 323.031185 -168.225197 
L 325.894049 -170.476229 
L 328.814353 -172.727262 
L 331.721725 -174.978295 
L 334.553892 -177.229328 
L 337.25829 -179.480361 
L 339.792852 -181.731393 
L 342.126151 -183.982426 
L 344.237044 -186.233459 
L 346.113994 -188.484492 
L 347.754149 -190.735525 
L 349.162259 -192.986557 
L 350.34945 -195.23759 
L 351.3319 -197.488623 
L 352.129438 -199.739656 
L 352.764138 -201.990688 
L 353.25897 -204.241721 
L 353.636578 -206.492754 
L 353.918266 -208.743787 
L 354.123222 -210.99482 
L 354.268004 -213.245852 
L 354.366274 -215.496885 
L 354.428742 -217.747918 
L 354.46328 -219.998951 
L 354.475158 -222.249984 
L 354.467353 -224.501016 
L 354.440928 -226.752049 
L 354.395443 -229.003082 
L 354.329426 -231.254115 
L 354.240894 -233.505148 
L 354.127922 -235.75618 
L 353.989253 -238.007213 
L 353.824902 -240.258246 
L 353.636704 -242.509279 
L 353.428718 -244.760311 
L 353.20741 -247.011344 
L 352.981561 -249.262377 
L 352.761827 -251.51341 
L 352.559996 -253.764443 
L 352.387983 -256.015475 
L 352.256683 -258.266508 
L 352.174834 -260.517541 
L 352.148058 -262.768574 
L 352.178222 -265.019607 
L 352.263224 -267.270639 
L 352.397234 -269.521672 
L 352.571357 -271.772705 
L 352.774605 -274.023738 
L 352.995045 -276.27477 
L 353.220938 -278.525803 
L 353.441736 -280.776836 
L 353.648821 -283.027869 
L 353.835924 -285.278902 
L 353.999226 -287.529934 
L 354.137187 -289.780967 
L 354.250174 -292.032 
L 354.908219 -292.032 
L 354.908219 -292.032 
L 355.021206 -289.780967 
L 355.159167 -287.529934 
L 355.322469 -285.278902 
L 355.509572 -283.027869 
L 355.716657 -280.776836 
L 355.937456 -278.525803 
L 356.163348 -276.27477 
L 356.383788 -274.023738 
L 356.587037 -271.772705 
L 356.761159 -269.521672 
L 356.89517 -267.270639 
L 356.980172 -265.019607 
L 357.010336 -262.768574 
L 356.98356 -260.517541 
L 356.90171 -258.266508 
L 356.77041 -256.015475 
L 356.598398 -253.764443 
L 356.396567 -251.51341 
L 356.176833 -249.262377 
L 355.950983 -247.011344 
L 355.729676 -244.760311 
L 355.521689 -242.509279 
L 355.333491 -240.258246 
L 355.169141 -238.007213 
L 355.030471 -235.75618 
L 354.917499 -233.505148 
L 354.828967 -231.254115 
L 354.76295 -229.003082 
L 354.717465 -226.752049 
L 354.69104 -224.501016 
L 354.683236 -222.249984 
L 354.695114 -219.998951 
L 354.729652 -217.747918 
L 354.79212 -215.496885 
L 354.890389 -213.245852 
L 355.035172 -210.99482 
L 355.240127 -208.743787 
L 355.521815 -206.492754 
L 355.899423 -204.241721 
L 356.394255 -201.990688 
L 357.028956 -199.739656 
L 357.826494 -197.488623 
L 358.808943 -195.23759 
L 359.996134 -192.986557 
L 361.404244 -190.735525 
L 363.0444 -188.484492 
L 364.92135 -186.233459 
L 367.032243 -183.982426 
L 369.365541 -181.731393 
L 371.900104 -179.480361 
L 374.604501 -177.229328 
L 377.436669 -174.978295 
L 380.344041 -172.727262 
L 383.264345 -170.476229 
L 386.127208 -168.225197 
L 388.856687 -165.974164 
L 391.374693 -163.723131 
L 393.605167 -161.472098 
L 395.47869 -159.221066 
L 396.937091 -156.970033 
L 397.937544 -154.719 
L 398.455675 -152.467967 
L 398.487273 -150.216934 
L 398.048377 -147.965902 
L 397.173725 -145.714869 
L 395.91373 -143.463836 
L 394.330376 -141.212803 
L 392.492487 -138.96177 
L 390.470917 -136.710738 
L 388.334119 -134.459705 
L 386.144499 -132.208672 
L 383.955765 -129.957639 
L 381.811373 -127.706606 
L 379.744007 -125.455574 
L 377.775914 -123.204541 
L 375.919901 -120.953508 
L 374.180731 -118.702475 
L 372.556742 -116.451443 
L 371.041518 -114.20041 
L 369.625517 -111.949377 
L 368.297588 -109.698344 
L 367.046351 -107.447311 
L 365.861386 -105.196279 
L 364.734203 -102.945246 
L 363.658941 -100.694213 
L 362.632727 -98.44318 
L 361.655683 -96.192147 
L 360.730571 -93.941115 
L 359.862115 -91.690082 
L 359.05611 -89.439049 
L 358.31842 -87.188016 
L 357.654025 -84.936983 
L 357.066229 -82.685951 
L 356.556131 -80.434918 
L 356.122409 -78.183885 
L 355.761405 -75.932852 
L 355.467469 -73.68182 
L 355.233477 -71.430787 
L 355.051429 -69.179754 
z
" style="stroke: #3f3f3f; stroke-width: 1.25"/>
    </defs>
    <g clip-path="url(#p1ff0bc22dd)">
     <use xlink:href="#m50a19ca9d0" x="0" y="345.6" style="fill: #3274a1; stroke: #3f3f3f; stroke-width: 1.25"/>
    </g>
   </g>
   <g id="matplotlib.axis_1">
    <g id="xtick_1">
     <g id="line2d_1">
      <defs>
       <path id="m76ff20bf99" d="M 0 0 
L 0 3.5 
" style="stroke: #000000; stroke-width: 0.8"/>
      </defs>
      <g>
       <use xlink:href="#m76ff20bf99" x="117.930895" y="307.584" style="stroke: #000000; stroke-width: 0.8"/>
      </g>
     </g>
     <g id="text_1">
      <!-- AV1 -->
      <g transform="translate(108.22777 322.182437) scale(0.1 -0.1)">
       <defs>
        <path id="DejaVuSans-41" d="M 2188 4044 
L 1331 1722 
L 3047 1722 
L 2188 4044 
z
M 1831 4666 
L 2547 4666 
L 4325 0 
L 3669 0 
L 3244 1197 
L 1141 1197 
L 716 0 
L 50 0 
L 1831 4666 
z
" transform="scale(0.015625)"/>
        <path id="DejaVuSans-56" d="M 1831 0 
L 50 4666 
L 709 4666 
L 2188 738 
L 3669 4666 
L 4325 4666 
L 2547 0 
L 1831 0 
z
" transform="scale(0.015625)"/>
        <path id="DejaVuSans-31" d="M 794 531 
L 1825 531 
L 1825 4091 
L 703 3866 
L 703 4441 
L 1819 4666 
L 2450 4666 
L 2450 531 
L 3481 531 
L 3481 0 
L 794 0 
L 794 531 
z
" transform="scale(0.015625)"/>
       </defs>
       <use xlink:href="#DejaVuSans-41"/>
       <use xlink:href="#DejaVuSans-56" x="62.033203"/>
       <use xlink:href="#DejaVuSans-31" x="130.441406"/>
      </g>
     </g>
    </g>
    <g id="xtick_2">
     <g id="line2d_2">
      <g>
       <use xlink:href="#m76ff20bf99" x="236.255046" y="307.584" style="stroke: #000000; stroke-width: 0.8"/>
      </g>
     </g>
     <g id="text_2">
      <!-- H264 -->
      <g transform="translate(222.95114 322.182437) scale(0.1 -0.1)">
       <defs>
        <path id="DejaVuSans-48" d="M 628 4666 
L 1259 4666 
L 1259 2753 
L 3553 2753 
L 3553 4666 
L 4184 4666 
L 4184 0 
L 3553 0 
L 3553 2222 
L 1259 2222 
L 1259 0 
L 628 0 
L 628 4666 
z
" transform="scale(0.015625)"/>
        <path id="DejaVuSans-32" d="M 1228 531 
L 3431 531 
L 3431 0 
L 469 0 
L 469 531 
Q 828 903 1448 1529 
Q 2069 2156 2228 2338 
Q 2531 2678 2651 2914 
Q 2772 3150 2772 3378 
Q 2772 3750 2511 3984 
Q 2250 4219 1831 4219 
Q 1534 4219 1204 4116 
Q 875 4013 500 3803 
L 500 4441 
Q 881 4594 1212 4672 
Q 1544 4750 1819 4750 
Q 2544 4750 2975 4387 
Q 3406 4025 3406 3419 
Q 3406 3131 3298 2873 
Q 3191 2616 2906 2266 
Q 2828 2175 2409 1742 
Q 1991 1309 1228 531 
z
" transform="scale(0.015625)"/>
        <path id="DejaVuSans-36" d="M 2113 2584 
Q 1688 2584 1439 2293 
Q 1191 2003 1191 1497 
Q 1191 994 1439 701 
Q 1688 409 2113 409 
Q 2538 409 2786 701 
Q 3034 994 3034 1497 
Q 3034 2003 2786 2293 
Q 2538 2584 2113 2584 
z
M 3366 4563 
L 3366 3988 
Q 3128 4100 2886 4159 
Q 2644 4219 2406 4219 
Q 1781 4219 1451 3797 
Q 1122 3375 1075 2522 
Q 1259 2794 1537 2939 
Q 1816 3084 2150 3084 
Q 2853 3084 3261 2657 
Q 3669 2231 3669 1497 
Q 3669 778 3244 343 
Q 2819 -91 2113 -91 
Q 1303 -91 875 529 
Q 447 1150 447 2328 
Q 447 3434 972 4092 
Q 1497 4750 2381 4750 
Q 2619 4750 2861 4703 
Q 3103 4656 3366 4563 
z
" transform="scale(0.015625)"/>
        <path id="DejaVuSans-34" d="M 2419 4116 
L 825 1625 
L 2419 1625 
L 2419 4116 
z
M 2253 4666 
L 3047 4666 
L 3047 1625 
L 3713 1625 
L 3713 1100 
L 3047 1100 
L 3047 0 
L 2419 0 
L 2419 1100 
L 313 1100 
L 313 1709 
L 2253 4666 
z
" transform="scale(0.015625)"/>
       </defs>
       <use xlink:href="#DejaVuSans-48"/>
       <use xlink:href="#DejaVuSans-32" x="75.195312"/>
       <use xlink:href="#DejaVuSans-36" x="138.818359"/>
       <use xlink:href="#DejaVuSans-34" x="202.441406"/>
      </g>
     </g>
    </g>
    <g id="xtick_3">
     <g id="line2d_3">
      <g>
       <use xlink:href="#m76ff20bf99" x="354.579197" y="307.584" style="stroke: #000000; stroke-width: 0.8"/>
      </g>
     </g>
     <g id="text_3">
      <!-- H265 -->
      <g transform="translate(341.275291 322.182437) scale(0.1 -0.1)">
       <defs>
        <path id="DejaVuSans-35" d="M 691 4666 
L 3169 4666 
L 3169 4134 
L 1269 4134 
L 1269 2991 
Q 1406 3038 1543 3061 
Q 1681 3084 1819 3084 
Q 2600 3084 3056 2656 
Q 3513 2228 3513 1497 
Q 3513 744 3044 326 
Q 2575 -91 1722 -91 
Q 1428 -91 1123 -41 
Q 819 9 494 109 
L 494 744 
Q 775 591 1075 516 
Q 1375 441 1709 441 
Q 2250 441 2565 725 
Q 2881 1009 2881 1497 
Q 2881 1984 2565 2268 
Q 2250 2553 1709 2553 
Q 1456 2553 1204 2497 
Q 953 2441 691 2322 
L 691 4666 
z
" transform="scale(0.015625)"/>
       </defs>
       <use xlink:href="#DejaVuSans-48"/>
       <use xlink:href="#DejaVuSans-32" x="75.195312"/>
       <use xlink:href="#DejaVuSans-36" x="138.818359"/>
       <use xlink:href="#DejaVuSans-35" x="202.441406"/>
      </g>
     </g>
    </g>
    <g id="text_4">
     <!-- Codec -->
     <g transform="translate(220.609219 335.860562) scale(0.1 -0.1)">
      <defs>
       <path id="DejaVuSans-43" d="M 4122 4306 
L 4122 3641 
Q 3803 3938 3442 4084 
Q 3081 4231 2675 4231 
Q 1875 4231 1450 3742 
Q 1025 3253 1025 2328 
Q 1025 1406 1450 917 
Q 1875 428 2675 428 
Q 3081 428 3442 575 
Q 3803 722 4122 1019 
L 4122 359 
Q 3791 134 3420 21 
Q 3050 -91 2638 -91 
Q 1578 -91 968 557 
Q 359 1206 359 2328 
Q 359 3453 968 4101 
Q 1578 4750 2638 4750 
Q 3056 4750 3426 4639 
Q 3797 4528 4122 4306 
z
" transform="scale(0.015625)"/>
       <path id="DejaVuSans-6f" d="M 1959 3097 
Q 1497 3097 1228 2736 
Q 959 2375 959 1747 
Q 959 1119 1226 758 
Q 1494 397 1959 397 
Q 2419 397 2687 759 
Q 2956 1122 2956 1747 
Q 2956 2369 2687 2733 
Q 2419 3097 1959 3097 
z
M 1959 3584 
Q 2709 3584 3137 3096 
Q 3566 2609 3566 1747 
Q 3566 888 3137 398 
Q 2709 -91 1959 -91 
Q 1206 -91 779 398 
Q 353 888 353 1747 
Q 353 2609 779 3096 
Q 1206 3584 1959 3584 
z
" transform="scale(0.015625)"/>
       <path id="DejaVuSans-64" d="M 2906 2969 
L 2906 4863 
L 3481 4863 
L 3481 0 
L 2906 0 
L 2906 525 
Q 2725 213 2448 61 
Q 2172 -91 1784 -91 
Q 1150 -91 751 415 
Q 353 922 353 1747 
Q 353 2572 751 3078 
Q 1150 3584 1784 3584 
Q 2172 3584 2448 3432 
Q 2725 3281 2906 2969 
z
M 947 1747 
Q 947 1113 1208 752 
Q 1469 391 1925 391 
Q 2381 391 2643 752 
Q 2906 1113 2906 1747 
Q 2906 2381 2643 2742 
Q 2381 3103 1925 3103 
Q 1469 3103 1208 2742 
Q 947 2381 947 1747 
z
" transform="scale(0.015625)"/>
       <path id="DejaVuSans-65" d="M 3597 1894 
L 3597 1613 
L 953 1613 
Q 991 1019 1311 708 
Q 1631 397 2203 397 
Q 2534 397 2845 478 
Q 3156 559 3463 722 
L 3463 178 
Q 3153 47 2828 -22 
Q 2503 -91 2169 -91 
Q 1331 -91 842 396 
Q 353 884 353 1716 
Q 353 2575 817 3079 
Q 1281 3584 2069 3584 
Q 2775 3584 3186 3129 
Q 3597 2675 3597 1894 
z
M 3022 2063 
Q 3016 2534 2758 2815 
Q 2500 3097 2075 3097 
Q 1594 3097 1305 2825 
Q 1016 2553 972 2059 
L 3022 2063 
z
" transform="scale(0.015625)"/>
       <path id="DejaVuSans-63" d="M 3122 3366 
L 3122 2828 
Q 2878 2963 2633 3030 
Q 2388 3097 2138 3097 
Q 1578 3097 1268 2742 
Q 959 2388 959 1747 
Q 959 1106 1268 751 
Q 1578 397 2138 397 
Q 2388 397 2633 464 
Q 2878 531 3122 666 
L 3122 134 
Q 2881 22 2623 -34 
Q 2366 -91 2075 -91 
Q 1284 -91 818 406 
Q 353 903 353 1747 
Q 353 2603 823 3093 
Q 1294 3584 2113 3584 
Q 2378 3584 2631 3529 
Q 2884 3475 3122 3366 
z
" transform="scale(0.015625)"/>
      </defs>
      <use xlink:href="#DejaVuSans-43"/>
      <use xlink:href="#DejaVuSans-6f" x="69.824219"/>
      <use xlink:href="#DejaVuSans-64" x="131.005859"/>
      <use xlink:href="#DejaVuSans-65" x="194.482422"/>
      <use xlink:href="#DejaVuSans-63" x="256.005859"/>
     </g>
    </g>
   </g>
   <g id="matplotlib.axis_2">
    <g id="ytick_1">
     <g id="line2d_4">
      <defs>
       <path id="m5c6ba64240" d="M 0 0 
L -3.5 0 
" style="stroke: #000000; stroke-width: 0.8"/>
      </defs>
      <g>
       <use xlink:href="#m5c6ba64240" x="57.6" y="276.966853" style="stroke: #000000; stroke-width: 0.8"/>
      </g>
     </g>
     <g id="text_5">
      <!-- 13.4 -->
      <g transform="translate(28.334375 280.766072) scale(0.1 -0.1)">
       <defs>
        <path id="DejaVuSans-33" d="M 2597 2516 
Q 3050 2419 3304 2112 
Q 3559 1806 3559 1356 
Q 3559 666 3084 287 
Q 2609 -91 1734 -91 
Q 1441 -91 1130 -33 
Q 819 25 488 141 
L 488 750 
Q 750 597 1062 519 
Q 1375 441 1716 441 
Q 2309 441 2620 675 
Q 2931 909 2931 1356 
Q 2931 1769 2642 2001 
Q 2353 2234 1838 2234 
L 1294 2234 
L 1294 2753 
L 1863 2753 
Q 2328 2753 2575 2939 
Q 2822 3125 2822 3475 
Q 2822 3834 2567 4026 
Q 2313 4219 1838 4219 
Q 1578 4219 1281 4162 
Q 984 4106 628 3988 
L 628 4550 
Q 988 4650 1302 4700 
Q 1616 4750 1894 4750 
Q 2613 4750 3031 4423 
Q 3450 4097 3450 3541 
Q 3450 3153 3228 2886 
Q 3006 2619 2597 2516 
z
" transform="scale(0.015625)"/>
        <path id="DejaVuSans-2e" d="M 684 794 
L 1344 794 
L 1344 0 
L 684 0 
L 684 794 
z
" transform="scale(0.015625)"/>
       </defs>
       <use xlink:href="#DejaVuSans-31"/>
       <use xlink:href="#DejaVuSans-33" x="63.623047"/>
       <use xlink:href="#DejaVuSans-2e" x="127.246094"/>
       <use xlink:href="#DejaVuSans-34" x="159.033203"/>
      </g>
     </g>
    </g>
    <g id="ytick_2">
     <g id="line2d_5">
      <g>
       <use xlink:href="#m5c6ba64240" x="57.6" y="242.197049" style="stroke: #000000; stroke-width: 0.8"/>
      </g>
     </g>
     <g id="text_6">
      <!-- 13.6 -->
      <g transform="translate(28.334375 245.996268) scale(0.1 -0.1)">
       <use xlink:href="#DejaVuSans-31"/>
       <use xlink:href="#DejaVuSans-33" x="63.623047"/>
       <use xlink:href="#DejaVuSans-2e" x="127.246094"/>
       <use xlink:href="#DejaVuSans-36" x="159.033203"/>
      </g>
     </g>
    </g>
    <g id="ytick_3">
     <g id="line2d_6">
      <g>
       <use xlink:href="#m5c6ba64240" x="57.6" y="207.427245" style="stroke: #000000; stroke-width: 0.8"/>
      </g>
     </g>
     <g id="text_7">
      <!-- 13.8 -->
      <g transform="translate(28.334375 211.226464) scale(0.1 -0.1)">
       <defs>
        <path id="DejaVuSans-38" d="M 2034 2216 
Q 1584 2216 1326 1975 
Q 1069 1734 1069 1313 
Q 1069 891 1326 650 
Q 1584 409 2034 409 
Q 2484 409 2743 651 
Q 3003 894 3003 1313 
Q 3003 1734 2745 1975 
Q 2488 2216 2034 2216 
z
M 1403 2484 
Q 997 2584 770 2862 
Q 544 3141 544 3541 
Q 544 4100 942 4425 
Q 1341 4750 2034 4750 
Q 2731 4750 3128 4425 
Q 3525 4100 3525 3541 
Q 3525 3141 3298 2862 
Q 3072 2584 2669 2484 
Q 3125 2378 3379 2068 
Q 3634 1759 3634 1313 
Q 3634 634 3220 271 
Q 2806 -91 2034 -91 
Q 1263 -91 848 271 
Q 434 634 434 1313 
Q 434 1759 690 2068 
Q 947 2378 1403 2484 
z
M 1172 3481 
Q 1172 3119 1398 2916 
Q 1625 2713 2034 2713 
Q 2441 2713 2670 2916 
Q 2900 3119 2900 3481 
Q 2900 3844 2670 4047 
Q 2441 4250 2034 4250 
Q 1625 4250 1398 4047 
Q 1172 3844 1172 3481 
z
" transform="scale(0.015625)"/>
       </defs>
       <use xlink:href="#DejaVuSans-31"/>
       <use xlink:href="#DejaVuSans-33" x="63.623047"/>
       <use xlink:href="#DejaVuSans-2e" x="127.246094"/>
       <use xlink:href="#DejaVuSans-38" x="159.033203"/>
      </g>
     </g>
    </g>
    <g id="ytick_4">
     <g id="line2d_7">
      <g>
       <use xlink:href="#m5c6ba64240" x="57.6" y="172.657441" style="stroke: #000000; stroke-width: 0.8"/>
      </g>
     </g>
     <g id="text_8">
      <!-- 14.0 -->
      <g transform="translate(28.334375 176.45666) scale(0.1 -0.1)">
       <defs>
        <path id="DejaVuSans-30" d="M 2034 4250 
Q 1547 4250 1301 3770 
Q 1056 3291 1056 2328 
Q 1056 1369 1301 889 
Q 1547 409 2034 409 
Q 2525 409 2770 889 
Q 3016 1369 3016 2328 
Q 3016 3291 2770 3770 
Q 2525 4250 2034 4250 
z
M 2034 4750 
Q 2819 4750 3233 4129 
Q 3647 3509 3647 2328 
Q 3647 1150 3233 529 
Q 2819 -91 2034 -91 
Q 1250 -91 836 529 
Q 422 1150 422 2328 
Q 422 3509 836 4129 
Q 1250 4750 2034 4750 
z
" transform="scale(0.015625)"/>
       </defs>
       <use xlink:href="#DejaVuSans-31"/>
       <use xlink:href="#DejaVuSans-34" x="63.623047"/>
       <use xlink:href="#DejaVuSans-2e" x="127.246094"/>
       <use xlink:href="#DejaVuSans-30" x="159.033203"/>
      </g>
     </g>
    </g>
    <g id="ytick_5">
     <g id="line2d_8">
      <g>
       <use xlink:href="#m5c6ba64240" x="57.6" y="137.887637" style="stroke: #000000; stroke-width: 0.8"/>
      </g>
     </g>
     <g id="text_9">
      <!-- 14.2 -->
      <g transform="translate(28.334375 141.686856) scale(0.1 -0.1)">
       <use xlink:href="#DejaVuSans-31"/>
       <use xlink:href="#DejaVuSans-34" x="63.623047"/>
       <use xlink:href="#DejaVuSans-2e" x="127.246094"/>
       <use xlink:href="#DejaVuSans-32" x="159.033203"/>
      </g>
     </g>
    </g>
    <g id="ytick_6">
     <g id="line2d_9">
      <g>
       <use xlink:href="#m5c6ba64240" x="57.6" y="103.117833" style="stroke: #000000; stroke-width: 0.8"/>
      </g>
     </g>
     <g id="text_10">
      <!-- 14.4 -->
      <g transform="translate(28.334375 106.917052) scale(0.1 -0.1)">
       <use xlink:href="#DejaVuSans-31"/>
       <use xlink:href="#DejaVuSans-34" x="63.623047"/>
       <use xlink:href="#DejaVuSans-2e" x="127.246094"/>
       <use xlink:href="#DejaVuSans-34" x="159.033203"/>
      </g>
     </g>
    </g>
    <g id="ytick_7">
     <g id="line2d_10">
      <g>
       <use xlink:href="#m5c6ba64240" x="57.6" y="68.348029" style="stroke: #000000; stroke-width: 0.8"/>
      </g>
     </g>
     <g id="text_11">
      <!-- 14.6 -->
      <g transform="translate(28.334375 72.147248) scale(0.1 -0.1)">
       <use xlink:href="#DejaVuSans-31"/>
       <use xlink:href="#DejaVuSans-34" x="63.623047"/>
       <use xlink:href="#DejaVuSans-2e" x="127.246094"/>
       <use xlink:href="#DejaVuSans-36" x="159.033203"/>
      </g>
     </g>
    </g>
    <g id="text_12">
     <!-- Power (W) -->
     <g transform="translate(22.254687 200.076437) rotate(-90) scale(0.1 -0.1)">
      <defs>
       <path id="DejaVuSans-50" d="M 1259 4147 
L 1259 2394 
L 2053 2394 
Q 2494 2394 2734 2622 
Q 2975 2850 2975 3272 
Q 2975 3691 2734 3919 
Q 2494 4147 2053 4147 
L 1259 4147 
z
M 628 4666 
L 2053 4666 
Q 2838 4666 3239 4311 
Q 3641 3956 3641 3272 
Q 3641 2581 3239 2228 
Q 2838 1875 2053 1875 
L 1259 1875 
L 1259 0 
L 628 0 
L 628 4666 
z
" transform="scale(0.015625)"/>
       <path id="DejaVuSans-77" d="M 269 3500 
L 844 3500 
L 1563 769 
L 2278 3500 
L 2956 3500 
L 3675 769 
L 4391 3500 
L 4966 3500 
L 4050 0 
L 3372 0 
L 2619 2869 
L 1863 0 
L 1184 0 
L 269 3500 
z
" transform="scale(0.015625)"/>
       <path id="DejaVuSans-72" d="M 2631 2963 
Q 2534 3019 2420 3045 
Q 2306 3072 2169 3072 
Q 1681 3072 1420 2755 
Q 1159 2438 1159 1844 
L 1159 0 
L 581 0 
L 581 3500 
L 1159 3500 
L 1159 2956 
Q 1341 3275 1631 3429 
Q 1922 3584 2338 3584 
Q 2397 3584 2469 3576 
Q 2541 3569 2628 3553 
L 2631 2963 
z
" transform="scale(0.015625)"/>
       <path id="DejaVuSans-20" transform="scale(0.015625)"/>
       <path id="DejaVuSans-28" d="M 1984 4856 
Q 1566 4138 1362 3434 
Q 1159 2731 1159 2009 
Q 1159 1288 1364 580 
Q 1569 -128 1984 -844 
L 1484 -844 
Q 1016 -109 783 600 
Q 550 1309 550 2009 
Q 550 2706 781 3412 
Q 1013 4119 1484 4856 
L 1984 4856 
z
" transform="scale(0.015625)"/>
       <path id="DejaVuSans-57" d="M 213 4666 
L 850 4666 
L 1831 722 
L 2809 4666 
L 3519 4666 
L 4500 722 
L 5478 4666 
L 6119 4666 
L 4947 0 
L 4153 0 
L 3169 4050 
L 2175 0 
L 1381 0 
L 213 4666 
z
" transform="scale(0.015625)"/>
       <path id="DejaVuSans-29" d="M 513 4856 
L 1013 4856 
Q 1481 4119 1714 3412 
Q 1947 2706 1947 2009 
Q 1947 1309 1714 600 
Q 1481 -109 1013 -844 
L 513 -844 
Q 928 -128 1133 580 
Q 1338 1288 1338 2009 
Q 1338 2731 1133 3434 
Q 928 4138 513 4856 
z
" transform="scale(0.015625)"/>
      </defs>
      <use xlink:href="#DejaVuSans-50"/>
      <use xlink:href="#DejaVuSans-6f" x="56.677734"/>
      <use xlink:href="#DejaVuSans-77" x="117.859375"/>
      <use xlink:href="#DejaVuSans-65" x="199.646484"/>
      <use xlink:href="#DejaVuSans-72" x="261.169922"/>
      <use xlink:href="#DejaVuSans-20" x="302.283203"/>
      <use xlink:href="#DejaVuSans-28" x="334.070312"/>
      <use xlink:href="#DejaVuSans-57" x="373.083984"/>
      <use xlink:href="#DejaVuSans-29" x="471.960938"/>
     </g>
    </g>
   </g>
   <g id="line2d_11">
    <path d="M 117.930895 192.25359 
L 117.930895 116.121833 
" clip-path="url(#p1ff0bc22dd)" style="fill: none; stroke: #3f3f3f; stroke-width: 1.875; stroke-linecap: square"/>
   </g>
   <g id="line2d_12">
    <path d="M 117.930895 173.878288 
L 117.930895 144.256444 
" clip-path="url(#p1ff0bc22dd)" style="fill: none; stroke: #3f3f3f; stroke-width: 5.625; stroke-linecap: square"/>
   </g>
   <g id="line2d_13">
    <path d="M 117.930895 160.463372 
" clip-path="url(#p1ff0bc22dd)" style="fill: none; stroke: #3f3f3f; stroke-width: 1.5; stroke-linecap: square"/>
    <defs>
     <path id="m5432fee1a3" d="M 2.34375 0 
L -2.34375 -0 
" style="stroke: #ffffff; stroke-width: 1.125"/>
    </defs>
    <g clip-path="url(#p1ff0bc22dd)">
     <use xlink:href="#m5432fee1a3" x="117.930895" y="160.463372" style="fill: #ffffff; stroke: #ffffff; stroke-width: 1.125"/>
    </g>
   </g>
   <g id="line2d_14">
    <path d="M 236.255046 256.662665 
L 236.255046 174.322286 
" clip-path="url(#p1ff0bc22dd)" style="fill: none; stroke: #3f3f3f; stroke-width: 1.875; stroke-linecap: square"/>
   </g>
   <g id="line2d_15">
    <path d="M 236.255046 232.994576 
L 236.255046 207.200432 
" clip-path="url(#p1ff0bc22dd)" style="fill: none; stroke: #3f3f3f; stroke-width: 5.625; stroke-linecap: square"/>
   </g>
   <g id="line2d_16">
    <path d="M 236.255046 220.997928 
" clip-path="url(#p1ff0bc22dd)" style="fill: none; stroke: #3f3f3f; stroke-width: 1.5; stroke-linecap: square"/>
    <g clip-path="url(#p1ff0bc22dd)">
     <use xlink:href="#m5432fee1a3" x="236.255046" y="220.997928" style="fill: #ffffff; stroke: #ffffff; stroke-width: 1.125"/>
    </g>
   </g>
   <g id="line2d_17">
    <path d="M 354.579197 247.089466 
L 354.579197 168.315296 
" clip-path="url(#p1ff0bc22dd)" style="fill: none; stroke: #3f3f3f; stroke-width: 1.875; stroke-linecap: square"/>
   </g>
   <g id="line2d_18">
    <path d="M 354.579197 210.0294 
L 354.579197 184.778833 
" clip-path="url(#p1ff0bc22dd)" style="fill: none; stroke: #3f3f3f; stroke-width: 5.625; stroke-linecap: square"/>
   </g>
   <g id="line2d_19">
    <path d="M 354.579197 196.031841 
" clip-path="url(#p1ff0bc22dd)" style="fill: none; stroke: #3f3f3f; stroke-width: 1.5; stroke-linecap: square"/>
    <g clip-path="url(#p1ff0bc22dd)">
     <use xlink:href="#m5432fee1a3" x="354.579197" y="196.031841" style="fill: #ffffff; stroke: #ffffff; stroke-width: 1.125"/>
    </g>
   </g>
   <g id="patch_3">
    <path d="M 57.6 307.584 
L 57.6 41.472 
" style="fill: none; stroke: #000000; stroke-width: 0.8; stroke-linejoin: miter; stroke-linecap: square"/>
   </g>
   <g id="patch_4">
    <path d="M 414.72 307.584 
L 414.72 41.472 
" style="fill: none; stroke: #000000; stroke-width: 0.8; stroke-linejoin: miter; stroke-linecap: square"/>
   </g>
   <g id="patch_5">
    <path d="M 57.6 307.584 
L 414.72 307.584 
" style="fill: none; stroke: #000000; stroke-width: 0.8; stroke-linejoin: miter; stroke-linecap: square"/>
   </g>
   <g id="patch_6">
    <path d="M 57.6 41.472 
L 414.72 41.472 
" style="fill: none; stroke: #000000; stroke-width: 0.8; stroke-linejoin: miter; stroke-linecap: square"/>
   </g>
  </g>
 </g>
 <defs>
  <clipPath id="p1ff0bc22dd">
   <rect x="57.6" y="41.472" width="357.12" height="266.112"/>
  </clipPath>
 </defs>
</svg>
